<svg width="37" height="39" viewBox="0 0 37 39" fill="none" xmlns="http://www.w3.org/2000/svg">
<g clip-path="url(#clip0_346_3)">
<path d="M18.5 0C28.6183 0 36.8247 8.73272 36.8247 19.5C36.8247 30.2673 28.6183 39 18.5 39C8.38166 39 0.175323 30.2673 0.175323 19.5C0.175323 8.73272 8.38166 0 18.5 0Z" fill="#00BCD5"/>
<path d="M25.2199 27.6332C25.2199 27.6828 25.243 27.7327 25.243 27.7823C25.243 29.1753 21.9707 30.2945 17.9271 30.2945C13.9072 30.2945 10.635 29.1753 10.635 27.7823C10.635 27.7327 10.635 27.6828 10.635 27.6332C10.635 27.6083 10.635 27.5586 10.635 27.5087C10.635 26.1161 13.9072 24.9967 17.9271 24.9967C21.9707 24.9967 25.243 26.1161 25.243 27.5087C25.2431 27.5587 25.2199 27.6083 25.2199 27.6332Z" fill="#757575"/>
<path d="M25.2199 27.6332C25.2199 27.6828 25.243 27.7327 25.243 27.7823C25.243 29.1753 21.9707 30.2945 17.9271 30.2945C17.7635 30.2945 17.5764 30.2945 17.4129 30.2945V24.9967C17.5764 24.9967 17.7635 24.9967 17.9271 24.9967C21.9707 24.9967 25.243 26.1161 25.243 27.5087C25.2431 27.5587 25.2199 27.6083 25.2199 27.6332Z" fill="#696969"/>
<path d="M17.413 24.9968C17.5765 24.9968 17.7636 24.9968 17.9272 24.9968C21.8306 24.9968 25.0094 26.0412 25.22 27.3846C25.0095 28.7027 21.8307 29.7475 17.9272 29.7475C17.7636 29.7475 17.5765 29.7475 17.413 29.7475V24.9968Z" fill="#757575"/>
<path d="M17.9271 24.7233C21.9549 24.7233 25.22 25.848 25.22 27.2352C25.22 28.6227 21.9549 29.7474 17.9271 29.7474C13.8998 29.7474 10.635 28.6227 10.635 27.2352C10.635 25.848 13.8997 24.7233 17.9271 24.7233Z" fill="#8D8D8D"/>
<path d="M17.9272 24.7233C21.9708 24.7233 25.2431 25.8425 25.2431 27.2352C25.2431 28.6281 21.9708 29.7474 17.9272 29.7474C17.7636 29.7474 17.5765 29.7474 17.413 29.7474V24.7233C17.5765 24.7233 17.7636 24.7233 17.9272 24.7233Z" fill="#7F7F7F"/>
<path d="M15.2861 19.8981H20.592V26.6134H15.2861V19.8981Z" fill="url(#paint0_linear_346_3)"/>
<path d="M20.592 23.5043V26.6134H17.413V23.5043H20.592Z" fill="url(#paint1_linear_346_3)"/>
<path d="M15.6832 20.3208H20.288V26.1907H15.6832V20.3208Z" fill="url(#paint2_linear_346_3)"/>
<path d="M20.288 23.5043V26.1907H17.413V23.5043H20.288Z" fill="#A6A6A6"/>
<path d="M4.69792 4.17877H31.2733C31.5306 4.17877 31.7645 4.40241 31.7645 4.70101V22.9821C31.7645 23.2807 31.5306 23.5043 31.2733 23.5043H4.69792C4.44116 23.5043 4.23065 23.2806 4.23065 22.9821V4.70101C4.23058 4.40241 4.44116 4.17877 4.69792 4.17877Z" fill="#A9ABAE"/>
<path d="M5.74983 4.94965H30.6656C30.8762 4.94965 31.0398 5.1237 31.0398 5.34742V21.9128C31.0398 22.1365 30.8762 22.3105 30.6656 22.3105H5.30597C5.09539 22.3105 4.93185 22.1365 4.93185 21.9128V5.82037C4.93193 5.32274 5.30597 4.94965 5.74983 4.94965Z" fill="#4E5A62"/>
<path d="M17.9975 22.4349C18.2039 22.4349 18.3716 22.613 18.3716 22.833C18.3716 23.0526 18.2039 23.2308 17.9975 23.2308C17.7909 23.2308 17.6234 23.0526 17.6234 22.833C17.6234 22.613 17.7909 22.4349 17.9975 22.4349Z" fill="url(#paint3_linear_346_3)"/>
<path d="M17.9975 22.5591C18.1396 22.5591 18.2543 22.6819 18.2543 22.8331C18.2543 22.9838 18.1396 23.1063 17.9975 23.1063C17.8555 23.1063 17.7401 22.9839 17.7401 22.8331C17.7401 22.6819 17.8555 22.5591 17.9975 22.5591Z" fill="#B3B3B3"/>
<path d="M6.47449 5.6958H7.80663V7.11374H6.47449V5.6958ZM8.06404 18.6793H9.39619V20.0968H8.06404V18.6793ZM6.47449 18.6793H7.80663V20.0968H6.47449V18.6793ZM8.06404 17.0623H9.39619V18.4802H8.06404V17.0623ZM6.47449 17.0623H7.80663V18.4802H6.47449V17.0623ZM8.06404 15.4207H9.39619V16.8636H8.06404V15.4207ZM6.47449 15.4207H7.80663V16.8636H6.47449V15.4207ZM8.06404 13.8041H9.39619V15.2217H8.06404V13.8041ZM6.47449 13.8041H7.80663V15.2217H6.47449V13.8041ZM8.06404 12.1875H9.39619V13.605H8.06404V12.1875ZM6.47449 12.1875H7.80663V13.605H6.47449V12.1875ZM8.06404 10.5709H9.39619V11.9884H8.06404V10.5709ZM6.47449 10.5709H7.80663V11.9884H6.47449V10.5709ZM8.06404 8.92937H9.39619V10.3469H8.06404V8.92937ZM6.47449 8.92937H7.80663V10.3469H6.47449V8.92937ZM8.06404 7.31247H9.39619V8.73041H8.06404V7.31247ZM6.47449 7.31247H7.80663V8.73041H6.47449V7.31247ZM8.06404 5.6958H9.39619V7.11374H8.06404V5.6958Z" fill="#C2C3C5"/>
<path d="M29.7776 21.6638H25.8042V24.6733H29.7776V21.6638Z" fill="#CBD0D4"/>
<path d="M29.4398 22.037H26.1548V24.3147H29.4398V22.037Z" fill="#51A8B1"/>
<path d="M34.3586 20.5944H30.3855V23.6038H34.3586V20.5944Z" fill="#CBD0D4"/>
<path d="M34.021 20.9675H30.7357V23.2453H34.021V20.9675Z" fill="#51A8B1"/>
<path d="M33.8213 15.2966H24.7992V22.1364H33.8213V15.2966Z" fill="#E6E7E8"/>
<path d="M33.0266 16.1174H25.5706V21.2907H33.0266V16.1174Z" fill="#51A8B1"/>
<path d="M16.408 0.422668H8.74182C8.08717 0.422668 7.573 0.969887 7.573 1.64149V6.36743C7.573 7.06371 8.08717 7.61093 8.74182 7.61093H14.6317L16.3379 9.9488V7.61101H16.408C17.0391 7.61101 17.5764 7.06379 17.5764 6.3675V1.64157C17.5765 0.969887 17.0391 0.422668 16.408 0.422668Z" fill="#ECB814"/>
<path d="M9.71921 4.93771H9.36359V2.52863H9.71921V3.56106H10.1233V2.52863H10.4854V4.93771H10.1233V3.90528H9.71921V4.93771Z" fill="#373435"/>
<path d="M10.6407 2.52863H11.74V2.87277H11.3682V4.93771H11.0126V2.87277H10.6407V2.52863Z" fill="#373435"/>
<path d="M12.6486 4.23907L12.8911 2.52863H13.3858V4.93771H13.0495V3.21006L12.8038 4.93771H12.4676L12.2024 3.23413V4.93771H11.892V2.52863H12.3867L12.6486 4.23907Z" fill="#373435"/>
<path d="M13.6446 2.52863H14.0002V4.59357H14.5854V4.93771H13.6446V2.52863Z" fill="#373435"/>
<path d="M15.2192 2.50104C15.5651 2.50104 15.743 2.72133 15.743 3.10676V3.18247H15.4067V3.08268C15.4067 2.91061 15.342 2.84518 15.2289 2.84518C15.1157 2.84518 15.0511 2.91054 15.0511 3.08268C15.0511 3.57826 15.7462 3.67119 15.7462 4.35948C15.7462 4.74491 15.5652 4.9652 15.216 4.9652C14.8668 4.9652 14.6858 4.74491 14.6858 4.35948V4.21148H15.022V4.38355C15.022 4.55562 15.0932 4.61762 15.2063 4.61762C15.3195 4.61762 15.3906 4.5557 15.3906 4.38355C15.3906 3.88797 14.6955 3.79505 14.6955 3.10676C14.6955 2.72133 14.8733 2.50104 15.2192 2.50104Z" fill="#373435"/>
<path d="M19.5166 17.933C19.5633 18.0574 19.5867 18.1569 19.6102 18.2812H20.1244L20.1479 18.9528L19.6336 18.9778C19.6102 19.1019 19.5867 19.2265 19.5401 19.3508L19.9843 19.6244L19.6567 20.2212L19.2361 19.9476C19.1661 20.0471 19.0724 20.1216 18.979 20.2212L19.2361 20.6688L18.6752 21.017L18.4413 20.5694C18.3247 20.6192 18.2077 20.6439 18.0907 20.6688V21.1664H17.4364V20.6938C17.3197 20.6688 17.2027 20.6439 17.0857 20.5943L16.8521 21.017L16.2913 20.6688L16.525 20.2461C16.4315 20.1715 16.3614 20.0967 16.2678 19.9972L15.8938 20.2461L15.5666 19.649L15.9407 19.4004C15.8938 19.2758 15.8703 19.1517 15.8469 19.0273H15.403V18.3557L15.8469 18.3311C15.8703 18.2066 15.8938 18.0574 15.9407 17.933L15.5432 17.6844L15.8703 17.0872L16.2913 17.3362C16.3614 17.2363 16.4549 17.1621 16.5481 17.0872L16.2913 16.6396L16.8755 16.2915L17.1092 16.7391C17.2258 16.7142 17.3197 16.6892 17.4364 16.6646V16.142H18.0907V16.6646C18.2077 16.6892 18.3012 16.7391 18.4182 16.764L18.6753 16.2914L19.2362 16.6395L18.979 17.1122C19.0491 17.1867 19.1194 17.2613 19.1895 17.3612L19.6337 17.0623L19.9608 17.6594L19.5166 17.933Z" fill="#E6E7E8"/>
<path d="M18.6116 18.1162C18.89 18.6127 18.7375 19.2551 18.2711 19.5516C17.8047 19.8478 17.2008 19.6856 16.9225 19.1892C16.6439 18.6931 16.7963 18.0503 17.2627 17.7542C17.7293 17.4577 18.3329 17.62 18.6116 18.1162Z" fill="#D2D3D5"/>
<path d="M18.4255 18.2343C18.6427 18.6216 18.5238 19.1226 18.1602 19.3536C17.7966 19.5846 17.3254 19.4582 17.1086 19.0712C16.8912 18.6843 17.01 18.183 17.3737 17.9522C17.7376 17.7208 18.2083 17.8473 18.4255 18.2343Z" fill="#BDBFC1"/>
<path d="M22.3683 17.1372C22.3917 17.1868 22.4149 17.2613 22.4149 17.3112H22.6955V17.6594H22.4383C22.4149 17.734 22.4149 17.7836 22.3917 17.8584L22.6254 17.9826L22.4383 18.3061L22.2278 18.157C22.2047 18.2065 22.1577 18.2565 22.1111 18.3061L22.2278 18.53L21.9475 18.7042L21.8305 18.4802C21.7605 18.5051 21.7136 18.53 21.6436 18.53V18.7787H21.3163V18.53C21.2697 18.53 21.1994 18.5051 21.1293 18.4802L21.0357 18.7042L20.7321 18.53L20.8488 18.3061C20.8021 18.2812 20.7556 18.2315 20.7321 18.1816L20.5451 18.3061L20.358 18.0076L20.5685 17.8834C20.5451 17.8335 20.5216 17.759 20.4984 17.6844H20.2879V17.3362H20.4984C20.5215 17.2613 20.5451 17.2117 20.5685 17.1372L20.358 17.0127L20.5216 16.7142L20.7321 16.8386C20.7788 16.7891 20.8257 16.7392 20.8722 16.6892L20.7321 16.4656L21.0357 16.2914L21.1527 16.5401C21.1994 16.5151 21.2697 16.4905 21.3163 16.4905V16.2169H21.6436V16.4905C21.7136 16.5151 21.7605 16.5151 21.8072 16.5401L21.9475 16.2914L22.2278 16.4656L22.1111 16.7142C22.1346 16.7641 22.1812 16.7891 22.2047 16.8386L22.4383 16.6892L22.6019 16.9881L22.3683 17.1372Z" fill="#E6E7E8"/>
<path d="M21.9165 17.2276C22.0582 17.4802 21.9809 17.8071 21.7433 17.9579C21.5062 18.1086 21.199 18.0261 21.0573 17.7737C20.9156 17.521 20.9933 17.1945 21.2305 17.0433C21.4679 16.8929 21.7751 16.9752 21.9165 17.2276Z" fill="#D2D3D5"/>
<path d="M21.8221 17.288C21.9327 17.4847 21.8721 17.7398 21.6871 17.8571C21.5022 17.9748 21.2627 17.9105 21.152 17.7135C21.0416 17.5167 21.1022 17.2621 21.287 17.1443C21.4721 17.0266 21.7117 17.091 21.8221 17.288Z" fill="#BDBFC1"/>
<path d="M17.0623 12.4611C17.1092 12.6105 17.1327 12.7347 17.1561 12.8838L17.8104 12.8588V13.7048L17.1793 13.7295C17.1561 13.8789 17.1327 14.028 17.0858 14.1771L17.6234 14.5253L17.2259 15.2465L16.6885 14.9233C16.6185 15.0475 16.5016 15.1474 16.408 15.2465L16.7116 15.7938L16.0107 16.2168L15.7302 15.6946C15.5901 15.7442 15.4499 15.7938 15.3095 15.8187V16.4159H14.5148V15.8437C14.3512 15.8187 14.211 15.7692 14.0709 15.7196L13.79 16.2168L13.1122 15.7938L13.3696 15.2965C13.2758 15.1969 13.1826 15.0975 13.0891 14.9979L12.6215 15.2715L12.2008 14.5503L12.6684 14.252C12.6215 14.1026 12.5749 13.9531 12.5515 13.8041H12.0141L11.9906 12.9586H12.5515C12.5749 12.7846 12.6215 12.6105 12.6684 12.461L12.2008 12.1625L12.598 11.4163L13.0891 11.7148C13.1826 11.6153 13.2758 11.4912 13.3931 11.4163L13.1122 10.8691L13.79 10.4464L14.094 10.9936C14.2344 10.944 14.3746 10.9191 14.5147 10.8941V10.2474H15.3094V10.9191C15.4498 10.944 15.5665 10.9686 15.7066 11.0182L16.0107 10.4464L16.7116 10.8691L16.3844 11.4662C16.4782 11.5408 16.5714 11.6403 16.6419 11.7398L17.2027 11.3913L17.5999 12.1126L17.0623 12.4611Z" fill="#E6E7E8"/>
<path d="M15.9423 12.6764C16.2838 13.2846 16.0967 14.072 15.5254 14.4353C14.9535 14.7987 14.2135 14.5996 13.8721 13.9914C13.5307 13.3832 13.7178 12.5958 14.2894 12.2324C14.8609 11.8691 15.6009 12.0681 15.9423 12.6764Z" fill="#D2D3D5"/>
<path d="M15.7144 12.8211C15.9808 13.2954 15.8349 13.9094 15.3891 14.1928C14.9434 14.4761 14.3665 14.321 14.1001 13.8467C13.8338 13.3723 13.9797 12.7583 14.4254 12.475C14.8711 12.1916 15.4484 12.3468 15.7144 12.8211Z" fill="#BDBFC1"/>
<path d="M33.6107 1.6665H19.4701V13.0083H33.6107V1.6665Z" fill="#E6E7E8"/>
<path d="M19.4701 1.6665H33.6107V3.18362H19.4701V1.6665Z" fill="#0D3652"/>
<path d="M19.4701 4.07892H33.6107V3.18359H19.4701V4.07892Z" fill="#699392"/>
<path d="M26.1474 9.45166H20.592V10.1051H26.1474V9.45166Z" fill="#607D8B"/>
<path d="M28.4953 9.45166H26.5286V10.1051H28.4953V9.45166Z" fill="#607D8B"/>
<path d="M32.4986 9.45166H28.9128V10.1051H32.4986V9.45166Z" fill="#607D8B"/>
<path d="M31.7803 10.3719H26.2249V11.0254H31.7803V10.3719Z" fill="#607D8B"/>
<path d="M25.8539 10.3719H23.8875V11.0254H25.8539V10.3719Z" fill="#607D8B"/>
<path d="M23.4766 10.3719H19.8907V11.0254H23.4766V10.3719Z" fill="#607D8B"/>
<path d="M33.0426 11.2173H27.4869V11.8711H33.0426V11.2173Z" fill="#607D8B"/>
<path d="M27.1163 11.2173H25.1495V11.8711H27.1163V11.2173Z" fill="#607D8B"/>
<path d="M24.7386 11.2173H21.1528V11.8711H24.7386V11.2173Z" fill="#607D8B"/>
<path d="M20.4985 3.35767C20.6402 3.35767 20.7556 3.48045 20.7556 3.63166C20.7556 3.78286 20.6402 3.90488 20.4985 3.90488C20.3564 3.90488 20.2414 3.78278 20.2414 3.63166C20.2414 3.48053 20.3564 3.35767 20.4985 3.35767Z" fill="#F48884"/>
<path d="M21.1994 3.35767C21.3415 3.35767 21.4565 3.48045 21.4565 3.63166C21.4565 3.78286 21.3415 3.90488 21.1994 3.90488C21.0577 3.90488 20.9423 3.78278 20.9423 3.63166C20.9423 3.48053 21.0578 3.35767 21.1994 3.35767Z" fill="#5CC6D0"/>
<path d="M21.8541 3.35767C21.9961 3.35767 22.1112 3.48045 22.1112 3.63166C22.1112 3.78286 21.9961 3.90488 21.8541 3.90488C21.7121 3.90488 21.597 3.78278 21.597 3.63166C21.597 3.48053 21.7121 3.35767 21.8541 3.35767Z" fill="#A7C4D2"/>
<path d="M22.8825 3.8803H33.4003V3.40765H22.8825V3.8803Z" fill="#537473"/>
<path d="M32.9565 4.60144H20.1479V8.87948H32.9565V4.60144Z" fill="#E84E40"/>
<path d="M34.3586 20.1963H34.1949V15.2966C34.1949 15.0726 34.0313 14.8985 33.8213 14.8985H32.1381V13.4061H33.6108C33.8213 13.4061 33.9849 13.232 33.9849 13.0083V1.66649C33.9849 1.44285 33.8213 1.26872 33.6108 1.26872H19.4701C19.2596 1.26872 19.0961 1.44285 19.0961 1.66649V3.78064H17.9506V1.64158C17.9506 0.746256 17.2494 0 16.408 0H8.74184C7.87704 0 7.19918 0.746256 7.19918 1.64158V3.78071H4.69793C4.23066 3.78071 3.85654 4.20339 3.85654 4.7011V22.9822C3.85654 23.5044 4.23058 23.9025 4.69793 23.9025H14.9123V24.5492C13.8604 24.6983 12.715 24.972 11.7802 25.4446C11.1258 25.7677 10.2611 26.3399 10.2611 27.2353C10.2611 27.2851 10.2611 27.3348 10.2611 27.3847C10.2611 27.4343 10.2611 27.4593 10.2611 27.5089C10.2611 27.5588 10.2611 27.6084 10.2611 27.6333C10.2611 27.6829 10.2611 27.7329 10.2611 27.7825C10.2611 28.9017 11.6401 29.5735 12.4814 29.8717C14.0006 30.4439 15.8007 30.6429 17.4131 30.6928C17.5766 30.6928 17.7637 30.6928 17.9272 30.6928C19.6569 30.6928 21.5736 30.4937 23.2098 29.9465C24.0746 29.6231 25.6172 28.9517 25.6172 27.7825C25.6172 27.7329 25.6172 27.6829 25.5937 27.6333C25.6172 27.6084 25.6172 27.5588 25.6172 27.5089C25.6172 27.4593 25.6172 27.4343 25.5937 27.3847C25.6172 27.3348 25.6172 27.2851 25.6172 27.2353C25.6172 26.3399 24.7524 25.7677 24.0746 25.4446C23.1397 24.972 21.9943 24.6983 20.9659 24.5492V23.9025H25.4301V24.6734C25.4301 24.8974 25.6171 25.0714 25.8043 25.0714H29.7777C29.9879 25.0714 30.1749 24.8975 30.1749 24.6734V23.9275C30.2216 23.9771 30.3149 24.0267 30.3855 24.0267H34.3586C34.5691 24.0267 34.7327 23.828 34.7327 23.6039V20.5944C34.7327 20.3703 34.5691 20.1963 34.3586 20.1963ZM34.3586 23.6038H30.3855V23.5044H29.7777V24.6733H25.8043V23.5044H20.5921V24.8973C23.3033 25.2454 25.2431 26.1656 25.2431 27.2351C25.2431 27.285 25.22 27.3347 25.22 27.3845C25.22 27.4092 25.2431 27.4591 25.2431 27.5087C25.2431 27.5586 25.22 27.6083 25.22 27.6332C25.22 27.6828 25.2431 27.7327 25.2431 27.7823C25.2431 29.1753 21.9708 30.2945 17.9272 30.2945C17.7636 30.2945 17.5765 30.2945 17.413 30.2945C13.6265 30.1951 10.6351 29.1007 10.6351 27.7823C10.6351 27.7327 10.6351 27.6828 10.6351 27.6332C10.6351 27.6083 10.6351 27.5586 10.6351 27.5087C10.6351 27.4592 10.6351 27.4092 10.6351 27.3845C10.6351 27.3347 10.6351 27.285 10.6351 27.2351C10.6351 26.1656 12.575 25.2454 15.2861 24.8973V23.5044H4.69793C4.44117 23.5044 4.23066 23.2806 4.23066 22.9821V4.70102C4.23066 4.40243 4.44124 4.17879 4.69793 4.17879H7.57301V1.6415C7.57301 0.96982 8.08718 0.422678 8.74184 0.422678H16.408C17.0392 0.422678 17.5765 0.969896 17.5765 1.6415V4.17879H19.47V4.07893V3.1836V1.66649H33.6108V3.1836V4.07893V13.0083H31.7645V15.2966H33.8213V20.5944H34.3586V23.6038H34.3586Z" fill="#4E5A62"/>
<path d="M5.02514 31.4885C7.26892 31.4885 9.53625 31.4885 11.7802 31.4885C14.024 31.4885 16.2914 31.4885 18.5349 31.4885C20.8022 31.4885 23.0461 31.4885 25.3134 31.4885C27.5569 31.4885 29.8243 31.4885 32.0682 31.4885C32.4423 32.0357 32.816 32.5579 33.1901 33.1051C33.5873 33.6523 33.938 34.1746 34.3119 34.7218C34.6861 35.2443 35.0833 35.7915 35.4571 36.3387C35.8311 36.8609 36.2052 37.4081 36.579 37.9554C33.5641 37.9554 30.549 37.9554 27.5337 37.9554C24.5185 37.9554 21.5034 37.9554 18.4882 37.9554C15.4965 37.9554 12.4813 37.9554 9.46615 37.9554C6.45102 37.9554 3.43581 37.9554 0.444153 37.9554C0.8182 37.4081 1.19232 36.861 1.5892 36.3387C1.96325 35.7915 2.33737 35.2443 2.7349 34.7218C3.10866 34.1746 3.50583 33.6274 3.88002 33.1051C4.25414 32.5579 4.65139 32.0357 5.02514 31.4885Z" fill="#E6E6E6"/>
<path d="M0.560869 37.8557H36.4389C36.5559 37.8557 36.626 38.0298 36.626 38.2287C36.626 38.4278 36.5559 38.6018 36.4389 38.6018H0.560869C0.444232 38.6018 0.374207 38.4278 0.374207 38.2287C0.374134 38.0298 0.44416 37.8557 0.560869 37.8557Z" fill="url(#paint4_linear_346_3)"/>
<path d="M0.560838 37.9056C0.444202 37.9056 0.420715 38.1543 0.420715 38.2288C0.420715 38.3033 0.444202 38.5523 0.560838 38.5523H36.4389C36.5558 38.5523 36.6025 38.3033 36.6025 38.2288C36.6025 38.1543 36.5558 37.9056 36.4389 37.9056H0.560838Z" fill="#B3B3B3"/>
<path d="M18.021 31.4885H18.5349C20.8023 31.4885 23.0461 31.4885 25.3134 31.4885C27.5569 31.4885 29.8243 31.4885 32.0682 31.4885C32.4423 32.0357 32.816 32.5579 33.1901 33.1051C33.5873 33.6523 33.938 34.1746 34.3119 34.7218C34.6861 35.2443 35.0833 35.7915 35.4571 36.3387C35.8311 36.8609 36.2052 37.4081 36.579 37.9554C33.5641 37.9554 30.549 37.9554 27.5337 37.9554C24.5185 37.9554 21.5034 37.9554 18.4882 37.9554H18.021V31.4885Z" fill="#CFCFCF"/>
<path d="M3.15526 36.2886C4.88501 36.2886 6.61462 36.2886 8.36771 36.2886C8.25078 36.5126 8.15713 36.7364 8.06398 36.9602C6.2874 36.9602 4.51089 36.9353 2.73489 36.9353C2.8516 36.7364 3.01521 36.5127 3.15526 36.2886Z" fill="url(#paint5_linear_346_3)"/>
<path d="M8.71841 36.2886C9.27919 36.2886 9.84005 36.2886 10.4011 36.3136C10.3076 36.5126 10.2375 36.7364 10.1675 36.9602C9.58322 36.9602 8.99866 36.9602 8.43781 36.9602C8.53132 36.7364 8.6249 36.5127 8.71841 36.2886Z" fill="url(#paint6_linear_346_3)"/>
<path d="M10.6817 36.3137C11.2425 36.3137 11.8036 36.3137 12.3413 36.3137C12.2709 36.5377 12.2243 36.7613 12.1543 36.9853C11.5931 36.9853 11.0089 36.9853 10.4481 36.9603C10.5181 36.7364 10.5881 36.5127 10.6817 36.3137Z" fill="url(#paint7_linear_346_3)"/>
<path d="M12.6215 36.3137C13.1826 36.3137 13.7434 36.3137 14.3043 36.3137C14.2576 36.5377 14.1876 36.7613 14.1641 36.9853C13.5799 36.9853 13.019 36.9853 12.4345 36.9853C12.4814 36.7613 12.5515 36.5378 12.6215 36.3137Z" fill="url(#paint8_linear_346_3)"/>
<path d="M14.5851 36.3137C15.1225 36.3137 15.6833 36.3386 16.2444 36.3386C16.2209 36.5623 16.1975 36.7863 16.1509 37.0099C15.5901 37.0099 15.0055 36.9853 14.4447 36.9853C14.4681 36.7613 14.5148 36.5378 14.5851 36.3137Z" fill="url(#paint9_linear_346_3)"/>
<path d="M16.525 36.3386C17.0857 36.3386 17.6469 36.3386 18.2077 36.3386C18.1846 36.5623 18.1611 36.7864 18.1611 37.0099C17.5765 37.0099 17.0157 37.0099 16.4315 37.0099C16.4549 36.7863 16.4783 36.5623 16.525 36.3386Z" fill="url(#paint10_linear_346_3)"/>
<path d="M18.4649 36.3386C19.026 36.3386 19.5867 36.3386 20.148 36.3636C20.148 36.5872 20.148 36.8113 20.148 37.0349C19.5867 37.0349 19.0025 37.0099 18.4414 37.0099C18.4413 36.7863 18.4649 36.5623 18.4649 36.3386Z" fill="url(#paint11_linear_346_3)"/>
<path d="M20.4282 36.3636C20.9893 36.3636 21.55 36.3636 22.1112 36.3636C22.1112 36.5872 22.1347 36.8112 22.1579 37.0349C21.5735 37.0349 21.0127 37.0349 20.4282 37.0349C20.4282 36.8112 20.4282 36.5872 20.4282 36.3636Z" fill="url(#paint12_linear_346_3)"/>
<path d="M22.3683 36.3636C22.9291 36.3636 23.4901 36.3636 24.0509 36.3636C24.0744 36.5872 24.121 36.8359 24.168 37.0599C23.5838 37.0599 22.9994 37.035 22.4383 37.035C22.4149 36.8112 22.3917 36.5872 22.3683 36.3636Z" fill="url(#paint13_linear_346_3)"/>
<path d="M24.3315 36.3636C24.8924 36.3882 25.4535 36.3882 26.0142 36.3882C26.0611 36.6122 26.1078 36.8359 26.1547 37.0598C25.5705 37.0598 25.0093 37.0598 24.4251 37.0598C24.4016 36.8359 24.355 36.6122 24.3315 36.3636Z" fill="url(#paint14_linear_346_3)"/>
<path d="M26.2715 36.3882C26.8326 36.3882 27.3933 36.3882 27.9544 36.3882C28.0245 36.6123 28.0946 36.8359 28.1647 37.0849C27.5804 37.0599 27.0195 37.0599 26.4353 37.0599C26.3885 36.8359 26.3184 36.6123 26.2715 36.3882Z" fill="url(#paint15_linear_346_3)"/>
<path d="M28.2116 36.3882C29.9644 36.3882 31.694 36.3882 33.4238 36.4132C33.5407 36.6372 33.6574 36.8609 33.7744 37.0849C31.9981 37.0849 30.2216 37.0849 28.4453 37.0849C28.3517 36.8359 28.2817 36.6123 28.2116 36.3882Z" fill="url(#paint16_linear_346_3)"/>
<path d="M8.1572 35.4433C8.71842 35.4433 9.256 35.4433 9.79337 35.4433C9.67637 35.667 9.58315 35.891 9.46622 36.1147C8.90544 36.1147 8.3443 36.1147 7.80664 36.0896C7.92364 35.866 8.04056 35.6669 8.1572 35.4433Z" fill="url(#paint17_linear_346_3)"/>
<path d="M10.0505 35.4433C10.5881 35.4433 11.1258 35.4433 11.6635 35.4433C11.5696 35.667 11.4999 35.891 11.4061 36.1147C10.8453 36.1147 10.2845 36.1147 9.72333 36.1147C9.83996 35.891 9.95725 35.6669 10.0505 35.4433Z" fill="url(#paint18_linear_346_3)"/>
<path d="M11.9437 35.4433C12.4813 35.4433 13.019 35.4433 13.5567 35.4433C13.4863 35.667 13.4163 35.891 13.3462 36.1147C12.785 36.1147 12.2242 36.1147 11.6634 36.1147C11.7567 35.891 11.8502 35.6669 11.9437 35.4433Z" fill="url(#paint19_linear_346_3)"/>
<path d="M13.8135 35.4433C14.3512 35.4679 14.8888 35.4679 15.4265 35.4679C15.3796 35.6919 15.3327 35.9156 15.2629 36.1396C14.7252 36.1396 14.1641 36.1396 13.6034 36.1147C13.6734 35.891 13.7435 35.6669 13.8135 35.4433Z" fill="url(#paint20_linear_346_3)"/>
<path d="M15.7067 35.4679C16.2444 35.4679 16.782 35.4679 17.3198 35.4679C17.2729 35.6919 17.2494 35.9156 17.2028 36.1396C16.642 36.1396 16.1043 36.1396 15.5432 36.1396C15.5901 35.9156 15.6367 35.6919 15.7067 35.4679Z" fill="url(#paint21_linear_346_3)"/>
<path d="M17.5765 35.4679C18.1142 35.4679 18.6519 35.4679 19.1896 35.4679C19.1896 35.7169 19.1661 35.9405 19.1427 36.1646C18.5819 36.1397 18.021 36.1397 17.4834 36.1397C17.5067 35.9156 17.5534 35.6919 17.5765 35.4679Z" fill="url(#paint22_linear_346_3)"/>
<path d="M19.4701 35.4679C20.0075 35.4928 20.5451 35.4928 21.0828 35.4928C21.0828 35.7168 21.0828 35.9405 21.0828 36.1645C20.5216 36.1645 19.9609 36.1645 19.4231 36.1645C19.4231 35.9405 19.4467 35.7168 19.4701 35.4679Z" fill="url(#paint23_linear_346_3)"/>
<path d="M21.3399 35.4928C21.8775 35.4928 22.4149 35.4928 22.976 35.4928C22.976 35.7168 22.9995 35.9405 23.0227 36.1645C22.4618 36.1645 21.9008 36.1645 21.34 36.1645C21.3399 35.9405 21.3399 35.7168 21.3399 35.4928Z" fill="url(#paint24_linear_346_3)"/>
<path d="M23.2331 35.4928C23.7705 35.4928 24.3082 35.4928 24.8458 35.4928C24.8692 35.7415 24.9158 35.9654 24.9393 36.1892C24.3782 36.1892 23.8408 36.1892 23.2797 36.1646C23.2562 35.9405 23.2331 35.7168 23.2331 35.4928Z" fill="url(#paint25_linear_346_3)"/>
<path d="M25.1028 35.4928C25.6406 35.5179 26.2014 35.5179 26.7155 35.5179C26.7857 35.7415 26.8325 35.9654 26.8791 36.1892C26.3184 36.1892 25.7807 36.1892 25.2199 36.1892C25.1729 35.9654 25.1495 35.7415 25.1028 35.4928Z" fill="url(#paint26_linear_346_3)"/>
<path d="M26.9961 35.5179C27.5337 35.5179 28.0711 35.5179 28.6088 35.5179C28.6788 35.7415 28.7492 35.9655 28.8193 36.1892C28.258 36.1892 27.7208 36.1892 27.1596 36.1892C27.0896 35.9655 27.0427 35.7415 26.9961 35.5179Z" fill="url(#paint27_linear_346_3)"/>
<path d="M28.8659 35.5179C30.2449 35.5179 31.624 35.5179 33.003 35.5179C33.0965 35.7415 33.2134 35.9905 33.3301 36.2142C31.9045 36.2142 30.502 36.2142 29.0995 36.1893C29.0064 35.9655 28.936 35.7415 28.8659 35.5179Z" fill="url(#paint28_linear_346_3)"/>
<path d="M3.7865 35.4183C5.16555 35.4183 6.54459 35.4183 7.92364 35.4433C7.78323 35.667 7.66652 35.8661 7.52632 36.0896C6.12386 36.0896 4.69792 36.0896 3.29575 36.0896C3.45928 35.866 3.62296 35.6421 3.7865 35.4183Z" fill="url(#paint29_linear_346_3)"/>
<path d="M6.82512 34.5726C7.33936 34.5726 7.85353 34.5726 8.39126 34.5726C8.27426 34.7965 8.13378 35.0203 8.01714 35.2442C7.47956 35.2442 6.94183 35.2442 6.40417 35.2442C6.54459 35.0203 6.68493 34.7965 6.82512 34.5726Z" fill="url(#paint30_linear_346_3)"/>
<path d="M8.62491 34.5726C9.16228 34.5726 9.67645 34.5726 10.1907 34.5726C10.0974 34.7965 9.98047 35.0203 9.88696 35.2442C9.34938 35.2442 8.81165 35.2442 8.27435 35.2442C8.39128 35.0203 8.50792 34.7965 8.62491 34.5726Z" fill="url(#paint31_linear_346_3)"/>
<path d="M10.448 34.5726C10.9623 34.5726 11.4999 34.5976 12.0142 34.5976C11.9204 34.8212 11.8502 35.0203 11.7567 35.2442C11.2191 35.2442 10.6817 35.2442 10.1441 35.2442C10.2375 35.0203 10.3542 34.7965 10.448 34.5726Z" fill="url(#paint32_linear_346_3)"/>
<path d="M12.2709 34.5976C12.7851 34.5976 13.2993 34.5976 13.8135 34.5976C13.7668 34.8212 13.6968 35.0453 13.6264 35.2689C13.0891 35.2689 12.5515 35.2689 12.0141 35.2442C12.0838 35.0453 12.1777 34.8212 12.2709 34.5976Z" fill="url(#paint33_linear_346_3)"/>
<path d="M14.0709 34.5976C14.6083 34.5976 15.1224 34.5976 15.6367 34.5976C15.5901 34.8212 15.5432 35.0453 15.4731 35.2689C14.9357 35.2689 14.4215 35.2689 13.8839 35.2689C13.9539 35.0453 14.0005 34.8212 14.0709 34.5976Z" fill="url(#paint34_linear_346_3)"/>
<path d="M15.8938 34.5976C16.408 34.5976 16.9222 34.5976 17.4598 34.5976C17.4129 34.8212 17.3898 35.0453 17.3432 35.2689C16.8055 35.2689 16.2679 35.2689 15.7302 35.2689C15.8006 35.0453 15.8469 34.8212 15.8938 34.5976Z" fill="url(#paint35_linear_346_3)"/>
<path d="M17.7169 34.5976C18.2312 34.5976 18.7453 34.5976 19.2831 34.6225C19.2596 34.8462 19.2362 35.0702 19.213 35.2938C18.6753 35.2938 18.1376 35.2938 17.6 35.2689C17.6469 35.0453 17.6704 34.8212 17.7169 34.5976Z" fill="url(#paint36_linear_346_3)"/>
<path d="M19.5166 34.6225C20.0308 34.6225 20.5686 34.6225 21.0828 34.6225C21.0828 34.8462 21.0828 35.0702 21.0828 35.2938C20.5451 35.2938 20.0074 35.2938 19.4701 35.2938C19.4932 35.0702 19.4932 34.8462 19.5166 34.6225Z" fill="url(#paint37_linear_346_3)"/>
<path d="M21.3399 34.6225C21.8541 34.6225 22.3683 34.6225 22.906 34.6225C22.906 34.8462 22.9291 35.0702 22.9526 35.2938C22.4149 35.2938 21.8776 35.2938 21.34 35.2938C21.3399 35.0702 21.3399 34.8462 21.3399 34.6225Z" fill="url(#paint38_linear_346_3)"/>
<path d="M23.1396 34.6225C23.6772 34.6225 24.1915 34.6225 24.7057 34.6225C24.7523 34.8462 24.7758 35.0702 24.8223 35.3189C24.2849 35.3189 23.7473 35.2939 23.2097 35.2939C23.1863 35.0702 23.1631 34.8462 23.1396 34.6225Z" fill="url(#paint39_linear_346_3)"/>
<path d="M24.9628 34.6225C25.477 34.6225 26.0143 34.6225 26.5286 34.6471C26.5754 34.871 26.6221 35.0948 26.6921 35.3188C26.1548 35.3188 25.6171 35.3188 25.0795 35.3188C25.0328 35.0948 25.0094 34.8462 24.9628 34.6225Z" fill="url(#paint40_linear_346_3)"/>
<path d="M26.7857 34.6471C27.2998 34.6471 27.814 34.6471 28.3517 34.6471C28.4218 34.871 28.4921 35.0948 28.5622 35.3188C28.0245 35.3188 27.4869 35.3188 26.9496 35.3188C26.9026 35.0948 26.8326 34.8711 26.7857 34.6471Z" fill="url(#paint41_linear_346_3)"/>
<path d="M28.5854 34.6471C29.123 34.6471 29.6373 34.6471 30.1515 34.6471C30.245 34.871 30.3386 35.0948 30.4087 35.3188C29.8944 35.3188 29.357 35.3188 28.8194 35.3188C28.7493 35.0948 28.6558 34.8711 28.5854 34.6471Z" fill="url(#paint42_linear_346_3)"/>
<path d="M30.4086 34.6471C31.1332 34.6471 31.8576 34.6471 32.5589 34.6471C32.6758 34.871 32.7928 35.0948 32.9096 35.3188C32.1617 35.3188 31.4139 35.3188 30.6891 35.3188C30.5955 35.0948 30.5021 34.8711 30.4086 34.6471Z" fill="url(#paint43_linear_346_3)"/>
<path d="M4.41767 34.5726C5.11893 34.5726 5.8434 34.5726 6.56771 34.5726C6.42759 34.7965 6.28739 35.0203 6.14734 35.2442C5.39918 35.2442 4.67479 35.2442 3.92691 35.2442C4.09052 35.0203 4.25413 34.7965 4.41767 34.5726Z" fill="url(#paint44_linear_346_3)"/>
<path d="M4.95534 33.7021C5.46958 33.7021 5.96027 33.7021 6.47451 33.7021C6.35744 33.9259 6.24051 34.1498 6.10039 34.3735C5.56281 34.3735 5.04856 34.3735 4.53439 34.3735C4.69793 34.1498 4.83841 33.9259 4.95534 33.7021Z" fill="url(#paint45_linear_346_3)"/>
<path d="M6.7082 33.7021C7.19917 33.7021 7.71341 33.7021 8.22758 33.7021C8.11066 33.9259 8.01707 34.1498 7.87702 34.3735C7.36285 34.3735 6.84861 34.3735 6.33444 34.3735C6.47449 34.1498 6.5912 33.9259 6.7082 33.7021Z" fill="url(#paint46_linear_346_3)"/>
<path d="M8.46094 33.7021C8.95198 33.7268 9.46622 33.7268 9.95727 33.7268C9.88688 33.9508 9.79337 34.1745 9.69979 34.3735C9.1622 34.3735 8.64796 34.3735 8.13379 34.3735C8.25079 34.1498 8.36779 33.9259 8.46094 33.7021Z" fill="url(#paint47_linear_346_3)"/>
<path d="M10.214 33.7268C10.7048 33.7268 11.219 33.7268 11.71 33.7268C11.6634 33.9508 11.5696 34.1745 11.4998 34.3984C10.9622 34.3984 10.4479 34.3984 9.93384 34.3984C10.0505 34.1745 10.144 33.9509 10.214 33.7268Z" fill="url(#paint48_linear_346_3)"/>
<path d="M11.9671 33.7268C12.458 33.7268 12.9721 33.7268 13.4629 33.7268C13.4163 33.9508 13.3697 34.1745 13.2993 34.3984C12.7617 34.3984 12.2474 34.3984 11.7333 34.3984C11.8271 34.1745 11.8968 33.9509 11.9671 33.7268Z" fill="url(#paint49_linear_346_3)"/>
<path d="M13.7203 33.7268C14.211 33.7268 14.7252 33.7268 15.216 33.7268C15.1925 33.9508 15.1459 34.1745 15.0993 34.3984C14.5851 34.3984 14.0709 34.3984 13.5333 34.3984C13.6034 34.1745 13.6734 33.9509 13.7203 33.7268Z" fill="url(#paint50_linear_346_3)"/>
<path d="M15.4731 33.7268C15.9641 33.7268 16.4784 33.7268 16.9691 33.7268C16.9456 33.9508 16.9222 34.1745 16.8987 34.3984C16.3846 34.3984 15.8469 34.3984 15.3327 34.3984C15.403 34.1745 15.4265 33.9509 15.4731 33.7268Z" fill="url(#paint51_linear_346_3)"/>
<path d="M17.2259 33.7268C17.7169 33.7268 18.2312 33.7268 18.722 33.7268C18.722 33.9508 18.722 34.1745 18.6989 34.4235C18.1847 34.3984 17.647 34.3984 17.1328 34.3984C17.1794 34.1745 17.2028 33.9509 17.2259 33.7268Z" fill="url(#paint52_linear_346_3)"/>
<path d="M18.9791 33.7268C19.4701 33.7268 19.9843 33.7518 20.475 33.7518C20.475 33.9758 20.4985 34.1995 20.4985 34.4235C19.9609 34.4235 19.4701 34.4235 18.9324 34.4235C18.9559 34.1995 18.9791 33.9509 18.9791 33.7268Z" fill="url(#paint53_linear_346_3)"/>
<path d="M20.7087 33.7518C21.2229 33.7518 21.7371 33.7518 22.2278 33.7518C22.2512 33.9759 22.2747 34.1995 22.2982 34.4235C21.7606 34.4235 21.2463 34.4235 20.7321 34.4235C20.7322 34.1995 20.7322 33.9759 20.7087 33.7518Z" fill="url(#paint54_linear_346_3)"/>
<path d="M22.485 33.7518C22.976 33.7518 23.4668 33.7518 23.981 33.7518C24.028 33.9759 24.051 34.1995 24.098 34.4235C23.5603 34.4235 23.0461 34.4235 22.5318 34.4235C22.5318 34.1995 22.5084 33.9759 22.485 33.7518Z" fill="url(#paint55_linear_346_3)"/>
<path d="M24.2146 33.7518C24.7289 33.7518 25.2199 33.7518 25.7341 33.7518C25.8042 33.9759 25.8507 34.1995 25.8976 34.4235C25.36 34.4235 24.8458 34.4235 24.3316 34.4235C24.3082 34.1995 24.2616 33.9759 24.2146 33.7518Z" fill="url(#paint56_linear_346_3)"/>
<path d="M25.9678 33.7518C26.4819 33.7518 26.996 33.7518 27.4869 33.7518C27.5569 33.9759 27.6274 34.1995 27.6974 34.4481C27.1832 34.4481 26.669 34.4481 26.1312 34.4236C26.0848 34.1995 26.0378 33.9759 25.9678 33.7518Z" fill="url(#paint57_linear_346_3)"/>
<path d="M27.7675 33.7518C28.2581 33.7518 28.7723 33.7518 29.2635 33.7518C29.357 33.9759 29.4271 34.2245 29.5206 34.4481C29.0064 34.4481 28.4922 34.4481 27.9779 34.4481C27.9076 34.2245 27.8375 33.9759 27.7675 33.7518Z" fill="url(#paint58_linear_346_3)"/>
<path d="M29.5672 33.7518C30.432 33.7518 31.2733 33.7518 32.1382 33.7518C32.2551 34.0005 32.3488 34.2245 32.4654 34.4481C31.5774 34.4481 30.7125 34.4481 29.8243 34.4481C29.7307 34.2245 29.6606 33.9759 29.5672 33.7518Z" fill="url(#paint59_linear_346_3)"/>
<path d="M6.31096 32.6574C6.56779 32.6574 6.84862 32.6574 7.10538 32.6574C7.26899 32.6574 7.38591 32.7073 7.36286 32.782C7.31589 32.8565 7.15228 32.9061 7.01223 32.9061C6.73162 32.9061 6.45108 32.9061 6.17077 32.9061C6.00687 32.9061 5.91336 32.8565 5.93684 32.782C5.98382 32.7074 6.14735 32.6574 6.31096 32.6574Z" fill="url(#paint60_linear_346_3)"/>
<path d="M7.87701 32.6574C8.15719 32.6574 8.41431 32.6574 8.69492 32.6574C8.85845 32.6574 8.95204 32.7073 8.92848 32.782C8.90543 32.8565 8.76494 32.931 8.60133 32.931C8.3208 32.931 8.04048 32.9061 7.78314 32.9061C7.61953 32.9061 7.50289 32.8565 7.52631 32.782C7.57292 32.7074 7.7134 32.6574 7.87701 32.6574Z" fill="url(#paint61_linear_346_3)"/>
<path d="M9.46622 32.6574C9.72334 32.6574 10.0036 32.6574 10.2611 32.6574C10.4247 32.6574 10.5412 32.7073 10.5182 32.782C10.4947 32.8565 10.3543 32.931 10.1907 32.931C9.91043 32.931 9.62983 32.931 9.37278 32.931C9.20917 32.931 9.09253 32.8564 9.11566 32.782C9.13907 32.7074 9.30268 32.6574 9.46622 32.6574Z" fill="url(#paint62_linear_346_3)"/>
<path d="M11.0324 32.6574C11.3129 32.6574 11.5697 32.6574 11.8502 32.6574C12.0142 32.6574 12.1308 32.7073 12.1073 32.782C12.0838 32.8565 11.9438 32.931 11.7802 32.931C11.4999 32.931 11.2425 32.931 10.9623 32.931C10.7987 32.931 10.6817 32.8564 10.7049 32.782C10.7283 32.7074 10.8684 32.6574 11.0324 32.6574Z" fill="url(#paint63_linear_346_3)"/>
<path d="M12.6215 32.6574C12.8789 32.6574 13.1591 32.6574 13.4162 32.6574C13.5799 32.6574 13.6968 32.7073 13.6968 32.782C13.6734 32.8565 13.5332 32.931 13.3696 32.931C13.0891 32.931 12.8321 32.931 12.5514 32.931C12.3878 32.931 12.2708 32.8564 12.2943 32.782C12.3178 32.7074 12.4579 32.6574 12.6215 32.6574Z" fill="url(#paint64_linear_346_3)"/>
<path d="M14.1876 32.6574C14.4682 32.6574 14.7252 32.6574 15.0055 32.6574C15.1691 32.6574 15.2861 32.7073 15.2861 32.782C15.2861 32.8565 15.1225 32.931 14.9589 32.931C14.7018 32.931 14.4215 32.931 14.1407 32.931C13.977 32.931 13.8604 32.8564 13.8839 32.782C13.8839 32.7074 14.024 32.6574 14.1876 32.6574Z" fill="url(#paint65_linear_346_3)"/>
<path d="M15.7771 32.6574C16.0339 32.6574 16.3147 32.6574 16.5949 32.6574C16.735 32.6574 16.8755 32.7073 16.8755 32.782C16.852 32.8565 16.7351 32.931 16.5715 32.931C16.2913 32.931 16.0107 32.931 15.7536 32.931C15.59 32.931 15.4499 32.8564 15.4731 32.782C15.4731 32.7074 15.6136 32.6574 15.7771 32.6574Z" fill="url(#paint66_linear_346_3)"/>
<path d="M17.3432 32.6574C17.6234 32.6574 17.8805 32.6574 18.1611 32.6574C18.3247 32.6574 18.4413 32.7073 18.4648 32.782C18.4648 32.8815 18.3247 32.931 18.1611 32.931C17.8805 32.931 17.5999 32.931 17.3432 32.931C17.1793 32.931 17.0392 32.8564 17.0392 32.782C17.0623 32.7074 17.1793 32.6574 17.3432 32.6574Z" fill="url(#paint67_linear_346_3)"/>
<path d="M18.9324 32.6574C19.1896 32.6574 19.47 32.6574 19.7503 32.6574C19.8907 32.6574 20.0308 32.732 20.0308 32.8065C20.0543 32.8814 19.9139 32.931 19.7503 32.931C19.47 32.931 19.2129 32.931 18.9324 32.931C18.7688 32.931 18.6284 32.8815 18.6284 32.8065C18.6284 32.7074 18.7689 32.6574 18.9324 32.6574Z" fill="url(#paint68_linear_346_3)"/>
<path d="M20.4985 32.6574C20.7787 32.6574 21.0358 32.6574 21.3163 32.6574C21.4799 32.6574 21.6204 32.732 21.6204 32.8065C21.6436 32.8814 21.5034 32.931 21.3398 32.931C21.0827 32.931 20.8022 32.931 20.5216 32.931C20.358 32.931 20.2414 32.8815 20.2179 32.8065C20.2179 32.732 20.3346 32.6574 20.4985 32.6574Z" fill="url(#paint69_linear_346_3)"/>
<path d="M22.0877 32.6574C22.3448 32.6574 22.6254 32.6574 22.9059 32.6574C23.046 32.6574 23.1862 32.732 23.2096 32.8065C23.233 32.8814 23.116 32.931 22.929 32.931C22.6719 32.931 22.3916 32.931 22.1111 32.931C21.9707 32.931 21.8305 32.8815 21.8072 32.8065C21.784 32.732 21.9242 32.6574 22.0877 32.6574Z" fill="url(#paint70_linear_346_3)"/>
<path d="M23.6538 32.6574C23.9343 32.6574 24.1914 32.6574 24.4716 32.6574C24.6352 32.6574 24.7757 32.732 24.7991 32.8065C24.8222 32.8814 24.7057 32.931 24.5421 32.931C24.2615 32.931 23.9809 32.931 23.7238 32.931C23.5602 32.931 23.4201 32.8815 23.3967 32.8065C23.3732 32.732 23.4902 32.6574 23.6538 32.6574Z" fill="url(#paint71_linear_346_3)"/>
<path d="M25.2431 32.6574C25.5002 32.6574 25.7807 32.6574 26.0612 32.6574C26.2014 32.6574 26.365 32.732 26.3885 32.8065C26.4118 32.8814 26.2949 32.931 26.1312 32.931C25.8507 32.931 25.5936 32.931 25.3134 32.931C25.1495 32.931 25.0094 32.8815 24.9859 32.8065C24.9628 32.732 25.0794 32.6574 25.2431 32.6574Z" fill="url(#paint72_linear_346_3)"/>
<path d="M26.8091 32.6574C27.0896 32.6574 27.3468 32.6574 27.6274 32.6574C27.7908 32.6574 27.9544 32.732 27.9779 32.8065C28.001 32.8814 27.8844 32.956 27.7208 32.956C27.4402 32.956 27.1832 32.931 26.9026 32.931C26.739 32.931 26.5989 32.8815 26.5754 32.8065C26.552 32.732 26.669 32.6574 26.8091 32.6574Z" fill="url(#paint73_linear_346_3)"/>
<path d="M28.3987 32.6574C28.6559 32.6574 28.936 32.6574 29.2165 32.6574C29.357 32.6574 29.5206 32.732 29.5672 32.8065C29.5906 32.8814 29.4737 32.956 29.3101 32.956C29.0529 32.956 28.7724 32.956 28.4922 32.956C28.3284 32.956 28.1882 32.8814 28.1647 32.8065C28.1181 32.732 28.2351 32.6574 28.3987 32.6574Z" fill="url(#paint74_linear_346_3)"/>
<path d="M29.9879 32.6824C30.245 32.6824 30.5255 32.6824 30.7827 32.6824C30.9462 32.6824 31.1098 32.732 31.1567 32.8065C31.1798 32.8815 31.0864 32.9561 30.9228 32.9561C30.6425 32.9561 30.362 32.9561 30.1049 32.9561C29.9413 32.9561 29.7778 32.8815 29.7307 32.8065C29.7073 32.732 29.8243 32.6824 29.9879 32.6824Z" fill="url(#paint75_linear_346_3)"/>
<path d="M6.84861 31.7621C7.12879 31.7621 7.36285 31.8367 7.36285 31.9112C7.36285 32.0107 7.12879 32.0606 6.84861 32.0606C6.56772 32.0606 6.33444 32.0107 6.33444 31.9112C6.33444 31.8367 6.56772 31.7621 6.84861 31.7621Z" fill="url(#paint76_linear_346_3)"/>
<path d="M8.11067 31.8117C8.29734 31.8117 8.43782 31.8616 8.43782 31.9113C8.43782 31.9858 8.29741 32.0107 8.11067 32.0107C7.90009 32.0107 7.76004 31.9858 7.76004 31.9113C7.76004 31.8616 7.90009 31.8117 8.11067 31.8117Z" fill="url(#paint77_linear_346_3)"/>
<path d="M17.7401 36.3386C17.8805 36.3386 18.0441 36.3386 18.2077 36.3386C18.1846 36.5623 18.1611 36.7864 18.1611 37.0099C17.9975 37.0099 17.8339 37.0099 17.6935 37.0099C17.6935 36.7863 17.7169 36.5623 17.7401 36.3386Z" fill="url(#paint78_linear_346_3)"/>
<path d="M18.4649 36.3386C19.026 36.3386 19.5867 36.3386 20.148 36.3636C20.148 36.5872 20.148 36.8113 20.148 37.0349C19.5867 37.0349 19.0025 37.0099 18.4414 37.0099C18.4413 36.7863 18.4649 36.5623 18.4649 36.3386Z" fill="url(#paint79_linear_346_3)"/>
<path d="M20.4282 36.3636C20.9893 36.3636 21.55 36.3636 22.1112 36.3636C22.1112 36.5872 22.1347 36.8112 22.1579 37.0349C21.5735 37.0349 21.0127 37.0349 20.4282 37.0349C20.4282 36.8112 20.4282 36.5872 20.4282 36.3636Z" fill="url(#paint80_linear_346_3)"/>
<path d="M22.3683 36.3636C22.9291 36.3636 23.4901 36.3636 24.0509 36.3636C24.0744 36.5872 24.121 36.8359 24.168 37.0599C23.5838 37.0599 22.9994 37.035 22.4383 37.035C22.4149 36.8112 22.3917 36.5872 22.3683 36.3636Z" fill="url(#paint81_linear_346_3)"/>
<path d="M24.3315 36.3636C24.8924 36.3882 25.4535 36.3882 26.0142 36.3882C26.0611 36.6122 26.1078 36.8359 26.1547 37.0598C25.5705 37.0598 25.0093 37.0598 24.4251 37.0598C24.4016 36.8359 24.355 36.6122 24.3315 36.3636Z" fill="url(#paint82_linear_346_3)"/>
<path d="M26.2715 36.3882C26.8326 36.3882 27.3933 36.3882 27.9544 36.3882C28.0245 36.6123 28.0946 36.8359 28.1647 37.0849C27.5804 37.0599 27.0195 37.0599 26.4353 37.0599C26.3885 36.8359 26.3184 36.6123 26.2715 36.3882Z" fill="url(#paint83_linear_346_3)"/>
<path d="M28.2116 36.3882C29.9644 36.3882 31.694 36.3882 33.4238 36.4132C33.5407 36.6372 33.6574 36.8609 33.7744 37.0849C31.9981 37.0849 30.2216 37.0849 28.4453 37.0849C28.3517 36.8359 28.2817 36.6123 28.2116 36.3882Z" fill="url(#paint84_linear_346_3)"/>
<path d="M17.834 35.4679C18.2778 35.4679 18.7454 35.4679 19.1895 35.4679C19.1895 35.7169 19.1661 35.9405 19.1426 36.1646C18.6753 36.1397 18.2077 36.1397 17.7401 36.1397C17.7869 35.9156 17.8104 35.6919 17.834 35.4679Z" fill="url(#paint85_linear_346_3)"/>
<path d="M19.4701 35.4679C20.0075 35.4928 20.5451 35.4928 21.0828 35.4928C21.0828 35.7168 21.0828 35.9405 21.0828 36.1645C20.5216 36.1645 19.9609 36.1645 19.4231 36.1645C19.4231 35.9405 19.4467 35.7168 19.4701 35.4679Z" fill="url(#paint86_linear_346_3)"/>
<path d="M21.3399 35.4928C21.8775 35.4928 22.4149 35.4928 22.976 35.4928C22.976 35.7168 22.9995 35.9405 23.0227 36.1645C22.4618 36.1645 21.9008 36.1645 21.34 36.1645C21.3399 35.9405 21.3399 35.7168 21.3399 35.4928Z" fill="url(#paint87_linear_346_3)"/>
<path d="M23.2331 35.4928C23.7705 35.4928 24.3082 35.4928 24.8458 35.4928C24.8692 35.7415 24.9158 35.9654 24.9393 36.1892C24.3782 36.1892 23.8408 36.1892 23.2797 36.1646C23.2562 35.9405 23.2331 35.7168 23.2331 35.4928Z" fill="url(#paint88_linear_346_3)"/>
<path d="M25.1028 35.4928C25.6406 35.5179 26.2014 35.5179 26.7155 35.5179C26.7857 35.7415 26.8325 35.9654 26.8791 36.1892C26.3184 36.1892 25.7807 36.1892 25.2199 36.1892C25.1729 35.9654 25.1495 35.7415 25.1028 35.4928Z" fill="url(#paint89_linear_346_3)"/>
<path d="M26.9961 35.5179C27.5337 35.5179 28.0711 35.5179 28.6088 35.5179C28.6788 35.7415 28.7492 35.9655 28.8193 36.1892C28.258 36.1892 27.7208 36.1892 27.1596 36.1892C27.0896 35.9655 27.0427 35.7415 26.9961 35.5179Z" fill="url(#paint90_linear_346_3)"/>
<path d="M28.8659 35.5179C30.2449 35.5179 31.624 35.5179 33.003 35.5179C33.0965 35.7415 33.2134 35.9905 33.3301 36.2142C31.9045 36.2142 30.502 36.2142 29.0995 36.1893C29.0064 35.9655 28.936 35.7415 28.8659 35.5179Z" fill="url(#paint91_linear_346_3)"/>
<path d="M17.9271 34.5976C18.3716 34.5976 18.8154 34.5976 19.2831 34.6225C19.2596 34.8462 19.2362 35.0702 19.213 35.2938C18.7688 35.2938 18.3012 35.2938 17.8573 35.2689C17.8805 35.0453 17.904 34.8212 17.9271 34.5976Z" fill="url(#paint92_linear_346_3)"/>
<path d="M19.5166 34.6225C20.0308 34.6225 20.5686 34.6225 21.0828 34.6225C21.0828 34.8462 21.0828 35.0702 21.0828 35.2938C20.5451 35.2938 20.0074 35.2938 19.4701 35.2938C19.4932 35.0702 19.4932 34.8462 19.5166 34.6225Z" fill="url(#paint93_linear_346_3)"/>
<path d="M21.3399 34.6225C21.8541 34.6225 22.3683 34.6225 22.906 34.6225C22.906 34.8462 22.9291 35.0702 22.9526 35.2938C22.4149 35.2938 21.8776 35.2938 21.34 35.2938C21.3399 35.0702 21.3399 34.8462 21.3399 34.6225Z" fill="url(#paint94_linear_346_3)"/>
<path d="M23.1396 34.6225C23.6772 34.6225 24.1915 34.6225 24.7057 34.6225C24.7523 34.8462 24.7758 35.0702 24.8223 35.3189C24.2849 35.3189 23.7473 35.2939 23.2097 35.2939C23.1863 35.0702 23.1631 34.8462 23.1396 34.6225Z" fill="url(#paint95_linear_346_3)"/>
<path d="M24.9628 34.6225C25.477 34.6225 26.0143 34.6225 26.5286 34.6471C26.5754 34.871 26.6221 35.0948 26.6921 35.3188C26.1548 35.3188 25.6171 35.3188 25.0795 35.3188C25.0328 35.0948 25.0094 34.8462 24.9628 34.6225Z" fill="url(#paint96_linear_346_3)"/>
<path d="M26.7857 34.6471C27.2998 34.6471 27.814 34.6471 28.3517 34.6471C28.4218 34.871 28.4921 35.0948 28.5622 35.3188C28.0245 35.3188 27.4869 35.3188 26.9496 35.3188C26.9026 35.0948 26.8326 34.8711 26.7857 34.6471Z" fill="url(#paint97_linear_346_3)"/>
<path d="M28.5854 34.6471C29.123 34.6471 29.6373 34.6471 30.1515 34.6471C30.245 34.871 30.3386 35.0948 30.4087 35.3188C29.8944 35.3188 29.357 35.3188 28.8194 35.3188C28.7493 35.0948 28.6558 34.8711 28.5854 34.6471Z" fill="url(#paint98_linear_346_3)"/>
<path d="M30.4086 34.6471C31.1332 34.6471 31.8576 34.6471 32.5589 34.6471C32.6758 34.871 32.7928 35.0948 32.9096 35.3188C32.1617 35.3188 31.4139 35.3188 30.6891 35.3188C30.5955 35.0948 30.5021 34.8711 30.4086 34.6471Z" fill="url(#paint99_linear_346_3)"/>
<path d="M17.9975 33.7268C18.2543 33.7268 18.4883 33.7268 18.7219 33.7268C18.7219 33.9508 18.7219 34.1745 18.6988 34.4235C18.4413 34.3984 18.2077 34.3984 17.9506 34.3984C17.974 34.1745 17.9975 33.9509 17.9975 33.7268Z" fill="url(#paint100_linear_346_3)"/>
<path d="M18.9791 33.7268C19.4701 33.7268 19.9843 33.7518 20.475 33.7518C20.475 33.9758 20.4985 34.1995 20.4985 34.4235C19.9609 34.4235 19.4701 34.4235 18.9324 34.4235C18.9559 34.1995 18.9791 33.9509 18.9791 33.7268Z" fill="url(#paint101_linear_346_3)"/>
<path d="M20.7087 33.7518C21.2229 33.7518 21.7371 33.7518 22.2278 33.7518C22.2512 33.9759 22.2747 34.1995 22.2982 34.4235C21.7606 34.4235 21.2463 34.4235 20.7321 34.4235C20.7322 34.1995 20.7322 33.9759 20.7087 33.7518Z" fill="url(#paint102_linear_346_3)"/>
<path d="M22.485 33.7518C22.976 33.7518 23.4668 33.7518 23.981 33.7518C24.028 33.9759 24.051 34.1995 24.098 34.4235C23.5603 34.4235 23.0461 34.4235 22.5318 34.4235C22.5318 34.1995 22.5084 33.9759 22.485 33.7518Z" fill="url(#paint103_linear_346_3)"/>
<path d="M24.2146 33.7518C24.7289 33.7518 25.2199 33.7518 25.7341 33.7518C25.8042 33.9759 25.8507 34.1995 25.8976 34.4235C25.36 34.4235 24.8458 34.4235 24.3316 34.4235C24.3082 34.1995 24.2616 33.9759 24.2146 33.7518Z" fill="url(#paint104_linear_346_3)"/>
<path d="M25.9678 33.7518C26.4819 33.7518 26.996 33.7518 27.4869 33.7518C27.5569 33.9759 27.6274 34.1995 27.6974 34.4481C27.1832 34.4481 26.669 34.4481 26.1312 34.4236C26.0848 34.1995 26.0378 33.9759 25.9678 33.7518Z" fill="url(#paint105_linear_346_3)"/>
<path d="M27.7675 33.7518C28.2581 33.7518 28.7723 33.7518 29.2635 33.7518C29.357 33.9759 29.4271 34.2245 29.5206 34.4481C29.0064 34.4481 28.4922 34.4481 27.9779 34.4481C27.9076 34.2245 27.8375 33.9759 27.7675 33.7518Z" fill="url(#paint106_linear_346_3)"/>
<path d="M29.5672 33.7518C30.432 33.7518 31.2733 33.7518 32.1382 33.7518C32.2551 34.0005 32.3488 34.2245 32.4654 34.4481C31.5774 34.4481 30.7125 34.4481 29.8243 34.4481C29.7307 34.2245 29.6606 33.9759 29.5672 33.7518Z" fill="url(#paint107_linear_346_3)"/>
<path d="M17.9975 32.6574C18.0441 32.6574 18.1142 32.6574 18.1611 32.6574C18.3247 32.6574 18.4414 32.7073 18.4649 32.782C18.4649 32.8815 18.3247 32.931 18.1611 32.931C18.1142 32.931 18.0441 32.931 17.9975 32.931C17.9975 32.8316 17.9975 32.757 17.9975 32.6574Z" fill="url(#paint108_linear_346_3)"/>
<path d="M18.9324 32.6574C19.1896 32.6574 19.47 32.6574 19.7503 32.6574C19.8907 32.6574 20.0308 32.732 20.0308 32.8065C20.0543 32.8814 19.9139 32.931 19.7503 32.931C19.47 32.931 19.2129 32.931 18.9324 32.931C18.7688 32.931 18.6284 32.8815 18.6284 32.8065C18.6284 32.7074 18.7689 32.6574 18.9324 32.6574Z" fill="url(#paint109_linear_346_3)"/>
<path d="M20.4985 32.6574C20.7787 32.6574 21.0358 32.6574 21.3163 32.6574C21.4799 32.6574 21.6204 32.732 21.6204 32.8065C21.6436 32.8814 21.5034 32.931 21.3398 32.931C21.0827 32.931 20.8022 32.931 20.5216 32.931C20.358 32.931 20.2414 32.8815 20.2179 32.8065C20.2179 32.732 20.3346 32.6574 20.4985 32.6574Z" fill="url(#paint110_linear_346_3)"/>
<path d="M22.0877 32.6574C22.3448 32.6574 22.6254 32.6574 22.9059 32.6574C23.046 32.6574 23.1862 32.732 23.2096 32.8065C23.233 32.8814 23.116 32.931 22.929 32.931C22.6719 32.931 22.3916 32.931 22.1111 32.931C21.9707 32.931 21.8305 32.8815 21.8072 32.8065C21.784 32.732 21.9242 32.6574 22.0877 32.6574Z" fill="url(#paint111_linear_346_3)"/>
<path d="M23.6538 32.6574C23.9343 32.6574 24.1914 32.6574 24.4716 32.6574C24.6352 32.6574 24.7757 32.732 24.7991 32.8065C24.8222 32.8814 24.7057 32.931 24.5421 32.931C24.2615 32.931 23.9809 32.931 23.7238 32.931C23.5602 32.931 23.4201 32.8815 23.3967 32.8065C23.3732 32.732 23.4902 32.6574 23.6538 32.6574Z" fill="url(#paint112_linear_346_3)"/>
<path d="M25.2431 32.6574C25.5002 32.6574 25.7807 32.6574 26.0612 32.6574C26.2014 32.6574 26.365 32.732 26.3885 32.8065C26.4118 32.8814 26.2949 32.931 26.1312 32.931C25.8507 32.931 25.5936 32.931 25.3134 32.931C25.1495 32.931 25.0094 32.8815 24.9859 32.8065C24.9628 32.732 25.0794 32.6574 25.2431 32.6574Z" fill="url(#paint113_linear_346_3)"/>
<path d="M26.8091 32.6574C27.0896 32.6574 27.3468 32.6574 27.6274 32.6574C27.7908 32.6574 27.9544 32.732 27.9779 32.8065C28.001 32.8814 27.8844 32.956 27.7208 32.956C27.4402 32.956 27.1832 32.931 26.9026 32.931C26.739 32.931 26.5989 32.8815 26.5754 32.8065C26.552 32.732 26.669 32.6574 26.8091 32.6574Z" fill="url(#paint114_linear_346_3)"/>
<path d="M28.3987 32.6574C28.6559 32.6574 28.936 32.6574 29.2165 32.6574C29.357 32.6574 29.5206 32.732 29.5672 32.8065C29.5906 32.8814 29.4737 32.956 29.3101 32.956C29.0529 32.956 28.7724 32.956 28.4922 32.956C28.3284 32.956 28.1882 32.8814 28.1647 32.8065C28.1181 32.732 28.2351 32.6574 28.3987 32.6574Z" fill="url(#paint115_linear_346_3)"/>
<path d="M29.9879 32.6824C30.245 32.6824 30.5255 32.6824 30.7827 32.6824C30.9462 32.6824 31.1098 32.732 31.1567 32.8065C31.1798 32.8815 31.0864 32.9561 30.9228 32.9561C30.6425 32.9561 30.362 32.9561 30.1049 32.9561C29.9413 32.9561 29.7778 32.8815 29.7307 32.8065C29.7073 32.732 29.8243 32.6824 29.9879 32.6824Z" fill="url(#paint116_linear_346_3)"/>
<path d="M18.021 37.8557H36.4389C36.5558 37.8557 36.626 38.0298 36.626 38.2287C36.626 38.4278 36.5558 38.6018 36.4389 38.6018H18.021V37.8557Z" fill="url(#paint117_linear_346_3)"/>
<path d="M18.021 38.5523H36.4389C36.5558 38.5523 36.6025 38.3033 36.6025 38.2288C36.6025 38.1543 36.5558 37.9056 36.4389 37.9056H18.021V38.5523Z" fill="#A1A1A1"/>
<path d="M36.883 37.7316C36.883 37.7067 36.8596 37.6816 36.8361 37.6567C36.4858 37.1345 36.1118 36.6123 35.7377 36.0897C35.364 35.5676 34.9899 35.0204 34.6157 34.4732C34.242 33.951 33.8679 33.4037 33.4939 32.8565C33.1201 32.3344 32.746 31.7871 32.3719 31.2399C32.3019 31.1404 32.1852 31.0904 32.0683 31.0904H5.02513C4.90843 31.0904 4.79179 31.1404 4.7214 31.2399C4.34728 31.7871 3.95011 32.3093 3.57628 32.8565C3.20216 33.4037 2.80463 33.9509 2.43087 34.4732C2.05682 35.0204 1.65965 35.5425 1.28546 36.0897C0.911414 36.6123 0.537656 37.1345 0.163537 37.6567C0.163537 37.6816 0.140412 37.7067 0.116926 37.7316C0.0234863 37.8807 0 38.0547 0 38.2288C0 38.5769 0.163609 39 0.560854 39H36.4389C36.8361 39 37.0001 38.5769 37.0001 38.2288C37 38.0547 36.9766 37.8807 36.883 37.7316ZM36.4389 38.6019H18.021H0.560854C0.444217 38.6019 0.374191 38.4279 0.374191 38.2288C0.374191 38.1293 0.397316 38.0051 0.444217 37.9552C0.444217 37.9302 0.444217 37.9056 0.467631 37.9056C0.84175 37.3831 1.21551 36.8609 1.58927 36.3386C1.96331 35.7914 2.33743 35.2443 2.73496 34.7217C3.10872 34.1745 3.50589 33.6274 3.88009 33.1051C4.25413 32.5578 4.65138 32.0357 5.02521 31.4885H11.7802H18.021H18.535H25.3134H32.0682C32.4424 32.0357 32.816 32.5578 33.1902 33.1051C33.5874 33.6523 33.938 34.1745 34.3119 34.7217C34.6861 35.2442 35.0834 35.7914 35.4571 36.3386C35.8078 36.8609 36.1818 37.3831 36.5324 37.9056C36.5559 37.9056 36.5559 37.9302 36.5791 37.9552C36.6025 38.0051 36.626 38.1293 36.626 38.2288C36.626 38.4279 36.5559 38.6019 36.4389 38.6019Z" fill="#4E5A62"/>
<path d="M26.3884 18.2566C27.0427 18.2566 27.5569 18.8038 27.5569 19.4751C27.5569 19.8231 27.4168 20.1467 27.1832 20.3458L26.8325 20.9925L26.3884 21.8379L25.9442 20.9925L25.5935 20.3458C25.3834 20.1218 25.243 19.7986 25.243 19.4751C25.2431 18.8037 25.7573 18.2566 26.3884 18.2566ZM26.3884 18.9279C26.7155 18.9279 26.9726 19.2014 26.9726 19.525C26.9726 19.8731 26.7155 20.1467 26.3884 20.1467C26.0848 20.1467 25.8276 19.8731 25.8276 19.525C25.8276 19.2014 26.0848 18.9279 26.3884 18.9279Z" fill="#E74C3C"/>
</g>
<defs>
<linearGradient id="paint0_linear_346_3" x1="17.9391" y1="19.8981" x2="17.9391" y2="26.6134" gradientUnits="userSpaceOnUse">
<stop stop-color="#0C0B31"/>
<stop offset="1" stop-color="#CCCCCC" stop-opacity="0"/>
</linearGradient>
<linearGradient id="paint1_linear_346_3" x1="19.0025" y1="23.5043" x2="19.0025" y2="26.6134" gradientUnits="userSpaceOnUse">
<stop stop-color="#B8B8B8"/>
<stop offset="1" stop-color="#B8B8B8" stop-opacity="0"/>
</linearGradient>
<linearGradient id="paint2_linear_346_3" x1="17.9856" y1="20.3208" x2="17.9856" y2="26.1907" gradientUnits="userSpaceOnUse">
<stop stop-color="#B8B8B8"/>
<stop offset="1" stop-color="#B8B8B8" stop-opacity="0"/>
</linearGradient>
<linearGradient id="paint3_linear_346_3" x1="17.9975" y1="22.4349" x2="17.9975" y2="23.2308" gradientUnits="userSpaceOnUse">
<stop stop-color="#0C0B31"/>
<stop offset="1" stop-color="#CCCCCC" stop-opacity="0"/>
</linearGradient>
<linearGradient id="paint4_linear_346_3" x1="18.5001" y1="37.8557" x2="18.5001" y2="38.6018" gradientUnits="userSpaceOnUse">
<stop stop-color="#0C0B31"/>
<stop offset="1" stop-color="#CCCCCC" stop-opacity="0"/>
</linearGradient>
<linearGradient id="paint5_linear_346_3" x1="5.5513" y1="36.2886" x2="5.5513" y2="36.9602" gradientUnits="userSpaceOnUse">
<stop stop-color="#0C0B31"/>
<stop offset="1" stop-color="#CCCCCC" stop-opacity="0"/>
</linearGradient>
<linearGradient id="paint6_linear_346_3" x1="9.41946" y1="36.2886" x2="9.41946" y2="36.9602" gradientUnits="userSpaceOnUse">
<stop stop-color="#0C0B31"/>
<stop offset="1" stop-color="#CCCCCC" stop-opacity="0"/>
</linearGradient>
<linearGradient id="paint7_linear_346_3" x1="11.3947" y1="36.3137" x2="11.3947" y2="36.9853" gradientUnits="userSpaceOnUse">
<stop stop-color="#0C0B31"/>
<stop offset="1" stop-color="#CCCCCC" stop-opacity="0"/>
</linearGradient>
<linearGradient id="paint8_linear_346_3" x1="13.3694" y1="36.3137" x2="13.3694" y2="36.9853" gradientUnits="userSpaceOnUse">
<stop stop-color="#0C0B31"/>
<stop offset="1" stop-color="#CCCCCC" stop-opacity="0"/>
</linearGradient>
<linearGradient id="paint9_linear_346_3" x1="15.3446" y1="36.3137" x2="15.3446" y2="37.0099" gradientUnits="userSpaceOnUse">
<stop stop-color="#0C0B31"/>
<stop offset="1" stop-color="#CCCCCC" stop-opacity="0"/>
</linearGradient>
<linearGradient id="paint10_linear_346_3" x1="17.3196" y1="36.3386" x2="17.3196" y2="37.0099" gradientUnits="userSpaceOnUse">
<stop stop-color="#0C0B31"/>
<stop offset="1" stop-color="#CCCCCC" stop-opacity="0"/>
</linearGradient>
<linearGradient id="paint11_linear_346_3" x1="19.2947" y1="36.3386" x2="19.2947" y2="37.0349" gradientUnits="userSpaceOnUse">
<stop stop-color="#0C0B31"/>
<stop offset="1" stop-color="#CCCCCC" stop-opacity="0"/>
</linearGradient>
<linearGradient id="paint12_linear_346_3" x1="21.293" y1="36.3636" x2="21.293" y2="37.0349" gradientUnits="userSpaceOnUse">
<stop stop-color="#0C0B31"/>
<stop offset="1" stop-color="#CCCCCC" stop-opacity="0"/>
</linearGradient>
<linearGradient id="paint13_linear_346_3" x1="23.2682" y1="36.3636" x2="23.2682" y2="37.0599" gradientUnits="userSpaceOnUse">
<stop stop-color="#0C0B31"/>
<stop offset="1" stop-color="#CCCCCC" stop-opacity="0"/>
</linearGradient>
<linearGradient id="paint14_linear_346_3" x1="25.2431" y1="36.3636" x2="25.2431" y2="37.0598" gradientUnits="userSpaceOnUse">
<stop stop-color="#0C0B31"/>
<stop offset="1" stop-color="#CCCCCC" stop-opacity="0"/>
</linearGradient>
<linearGradient id="paint15_linear_346_3" x1="27.2181" y1="36.3882" x2="27.2181" y2="37.0849" gradientUnits="userSpaceOnUse">
<stop stop-color="#0C0B31"/>
<stop offset="1" stop-color="#CCCCCC" stop-opacity="0"/>
</linearGradient>
<linearGradient id="paint16_linear_346_3" x1="30.993" y1="36.3882" x2="30.993" y2="37.0849" gradientUnits="userSpaceOnUse">
<stop stop-color="#0C0B31"/>
<stop offset="1" stop-color="#CCCCCC" stop-opacity="0"/>
</linearGradient>
<linearGradient id="paint17_linear_346_3" x1="8.8" y1="35.4433" x2="8.8" y2="36.1147" gradientUnits="userSpaceOnUse">
<stop stop-color="#0C0B31"/>
<stop offset="1" stop-color="#CCCCCC" stop-opacity="0"/>
</linearGradient>
<linearGradient id="paint18_linear_346_3" x1="10.6934" y1="35.4433" x2="10.6934" y2="36.1147" gradientUnits="userSpaceOnUse">
<stop stop-color="#0C0B31"/>
<stop offset="1" stop-color="#CCCCCC" stop-opacity="0"/>
</linearGradient>
<linearGradient id="paint19_linear_346_3" x1="12.61" y1="35.4433" x2="12.61" y2="36.1147" gradientUnits="userSpaceOnUse">
<stop stop-color="#0C0B31"/>
<stop offset="1" stop-color="#CCCCCC" stop-opacity="0"/>
</linearGradient>
<linearGradient id="paint20_linear_346_3" x1="14.5149" y1="35.4433" x2="14.5149" y2="36.1396" gradientUnits="userSpaceOnUse">
<stop stop-color="#0C0B31"/>
<stop offset="1" stop-color="#CCCCCC" stop-opacity="0"/>
</linearGradient>
<linearGradient id="paint21_linear_346_3" x1="16.4315" y1="35.4679" x2="16.4315" y2="36.1396" gradientUnits="userSpaceOnUse">
<stop stop-color="#0C0B31"/>
<stop offset="1" stop-color="#CCCCCC" stop-opacity="0"/>
</linearGradient>
<linearGradient id="paint22_linear_346_3" x1="18.3365" y1="35.4679" x2="18.3365" y2="36.1646" gradientUnits="userSpaceOnUse">
<stop stop-color="#0C0B31"/>
<stop offset="1" stop-color="#CCCCCC" stop-opacity="0"/>
</linearGradient>
<linearGradient id="paint23_linear_346_3" x1="20.253" y1="35.4679" x2="20.253" y2="36.1645" gradientUnits="userSpaceOnUse">
<stop stop-color="#0C0B31"/>
<stop offset="1" stop-color="#CCCCCC" stop-opacity="0"/>
</linearGradient>
<linearGradient id="paint24_linear_346_3" x1="22.1813" y1="35.4928" x2="22.1813" y2="36.1645" gradientUnits="userSpaceOnUse">
<stop stop-color="#0C0B31"/>
<stop offset="1" stop-color="#CCCCCC" stop-opacity="0"/>
</linearGradient>
<linearGradient id="paint25_linear_346_3" x1="24.0862" y1="35.4928" x2="24.0862" y2="36.1892" gradientUnits="userSpaceOnUse">
<stop stop-color="#0C0B31"/>
<stop offset="1" stop-color="#CCCCCC" stop-opacity="0"/>
</linearGradient>
<linearGradient id="paint26_linear_346_3" x1="25.991" y1="35.4928" x2="25.991" y2="36.1892" gradientUnits="userSpaceOnUse">
<stop stop-color="#0C0B31"/>
<stop offset="1" stop-color="#CCCCCC" stop-opacity="0"/>
</linearGradient>
<linearGradient id="paint27_linear_346_3" x1="27.9077" y1="35.5179" x2="27.9077" y2="36.1892" gradientUnits="userSpaceOnUse">
<stop stop-color="#0C0B31"/>
<stop offset="1" stop-color="#CCCCCC" stop-opacity="0"/>
</linearGradient>
<linearGradient id="paint28_linear_346_3" x1="31.098" y1="35.5179" x2="31.098" y2="36.2142" gradientUnits="userSpaceOnUse">
<stop stop-color="#0C0B31"/>
<stop offset="1" stop-color="#CCCCCC" stop-opacity="0"/>
</linearGradient>
<linearGradient id="paint29_linear_346_3" x1="5.60969" y1="35.4183" x2="5.60969" y2="36.0896" gradientUnits="userSpaceOnUse">
<stop stop-color="#0C0B31"/>
<stop offset="1" stop-color="#CCCCCC" stop-opacity="0"/>
</linearGradient>
<linearGradient id="paint30_linear_346_3" x1="7.39772" y1="34.5726" x2="7.39772" y2="35.2442" gradientUnits="userSpaceOnUse">
<stop stop-color="#0C0B31"/>
<stop offset="1" stop-color="#CCCCCC" stop-opacity="0"/>
</linearGradient>
<linearGradient id="paint31_linear_346_3" x1="9.23252" y1="34.5726" x2="9.23252" y2="35.2442" gradientUnits="userSpaceOnUse">
<stop stop-color="#0C0B31"/>
<stop offset="1" stop-color="#CCCCCC" stop-opacity="0"/>
</linearGradient>
<linearGradient id="paint32_linear_346_3" x1="11.0791" y1="34.5726" x2="11.0791" y2="35.2442" gradientUnits="userSpaceOnUse">
<stop stop-color="#0C0B31"/>
<stop offset="1" stop-color="#CCCCCC" stop-opacity="0"/>
</linearGradient>
<linearGradient id="paint33_linear_346_3" x1="12.9138" y1="34.5976" x2="12.9138" y2="35.2689" gradientUnits="userSpaceOnUse">
<stop stop-color="#0C0B31"/>
<stop offset="1" stop-color="#CCCCCC" stop-opacity="0"/>
</linearGradient>
<linearGradient id="paint34_linear_346_3" x1="14.7603" y1="34.5976" x2="14.7603" y2="35.2689" gradientUnits="userSpaceOnUse">
<stop stop-color="#0C0B31"/>
<stop offset="1" stop-color="#CCCCCC" stop-opacity="0"/>
</linearGradient>
<linearGradient id="paint35_linear_346_3" x1="16.595" y1="34.5976" x2="16.595" y2="35.2689" gradientUnits="userSpaceOnUse">
<stop stop-color="#0C0B31"/>
<stop offset="1" stop-color="#CCCCCC" stop-opacity="0"/>
</linearGradient>
<linearGradient id="paint36_linear_346_3" x1="18.4415" y1="34.5976" x2="18.4415" y2="35.2938" gradientUnits="userSpaceOnUse">
<stop stop-color="#0C0B31"/>
<stop offset="1" stop-color="#CCCCCC" stop-opacity="0"/>
</linearGradient>
<linearGradient id="paint37_linear_346_3" x1="20.2764" y1="34.6225" x2="20.2764" y2="35.2938" gradientUnits="userSpaceOnUse">
<stop stop-color="#0C0B31"/>
<stop offset="1" stop-color="#CCCCCC" stop-opacity="0"/>
</linearGradient>
<linearGradient id="paint38_linear_346_3" x1="22.1462" y1="34.6225" x2="22.1462" y2="35.2938" gradientUnits="userSpaceOnUse">
<stop stop-color="#0C0B31"/>
<stop offset="1" stop-color="#CCCCCC" stop-opacity="0"/>
</linearGradient>
<linearGradient id="paint39_linear_346_3" x1="23.9809" y1="34.6225" x2="23.9809" y2="35.3189" gradientUnits="userSpaceOnUse">
<stop stop-color="#0C0B31"/>
<stop offset="1" stop-color="#CCCCCC" stop-opacity="0"/>
</linearGradient>
<linearGradient id="paint40_linear_346_3" x1="25.8275" y1="34.6225" x2="25.8275" y2="35.3188" gradientUnits="userSpaceOnUse">
<stop stop-color="#0C0B31"/>
<stop offset="1" stop-color="#CCCCCC" stop-opacity="0"/>
</linearGradient>
<linearGradient id="paint41_linear_346_3" x1="27.6739" y1="34.6471" x2="27.6739" y2="35.3188" gradientUnits="userSpaceOnUse">
<stop stop-color="#0C0B31"/>
<stop offset="1" stop-color="#CCCCCC" stop-opacity="0"/>
</linearGradient>
<linearGradient id="paint42_linear_346_3" x1="29.497" y1="34.6471" x2="29.497" y2="35.3188" gradientUnits="userSpaceOnUse">
<stop stop-color="#0C0B31"/>
<stop offset="1" stop-color="#CCCCCC" stop-opacity="0"/>
</linearGradient>
<linearGradient id="paint43_linear_346_3" x1="31.6591" y1="34.6471" x2="31.6591" y2="35.3188" gradientUnits="userSpaceOnUse">
<stop stop-color="#0C0B31"/>
<stop offset="1" stop-color="#CCCCCC" stop-opacity="0"/>
</linearGradient>
<linearGradient id="paint44_linear_346_3" x1="5.24731" y1="34.5726" x2="5.24731" y2="35.2442" gradientUnits="userSpaceOnUse">
<stop stop-color="#0C0B31"/>
<stop offset="1" stop-color="#CCCCCC" stop-opacity="0"/>
</linearGradient>
<linearGradient id="paint45_linear_346_3" x1="5.50445" y1="33.7021" x2="5.50445" y2="34.3735" gradientUnits="userSpaceOnUse">
<stop stop-color="#0C0B31"/>
<stop offset="1" stop-color="#CCCCCC" stop-opacity="0"/>
</linearGradient>
<linearGradient id="paint46_linear_346_3" x1="7.28101" y1="33.7021" x2="7.28101" y2="34.3735" gradientUnits="userSpaceOnUse">
<stop stop-color="#0C0B31"/>
<stop offset="1" stop-color="#CCCCCC" stop-opacity="0"/>
</linearGradient>
<linearGradient id="paint47_linear_346_3" x1="9.04553" y1="33.7021" x2="9.04553" y2="34.3735" gradientUnits="userSpaceOnUse">
<stop stop-color="#0C0B31"/>
<stop offset="1" stop-color="#CCCCCC" stop-opacity="0"/>
</linearGradient>
<linearGradient id="paint48_linear_346_3" x1="10.8219" y1="33.7268" x2="10.8219" y2="34.3984" gradientUnits="userSpaceOnUse">
<stop stop-color="#0C0B31"/>
<stop offset="1" stop-color="#CCCCCC" stop-opacity="0"/>
</linearGradient>
<linearGradient id="paint49_linear_346_3" x1="12.5981" y1="33.7268" x2="12.5981" y2="34.3984" gradientUnits="userSpaceOnUse">
<stop stop-color="#0C0B31"/>
<stop offset="1" stop-color="#CCCCCC" stop-opacity="0"/>
</linearGradient>
<linearGradient id="paint50_linear_346_3" x1="14.3746" y1="33.7268" x2="14.3746" y2="34.3984" gradientUnits="userSpaceOnUse">
<stop stop-color="#0C0B31"/>
<stop offset="1" stop-color="#CCCCCC" stop-opacity="0"/>
</linearGradient>
<linearGradient id="paint51_linear_346_3" x1="16.1509" y1="33.7268" x2="16.1509" y2="34.3984" gradientUnits="userSpaceOnUse">
<stop stop-color="#0C0B31"/>
<stop offset="1" stop-color="#CCCCCC" stop-opacity="0"/>
</linearGradient>
<linearGradient id="paint52_linear_346_3" x1="17.9274" y1="33.7268" x2="17.9274" y2="34.4235" gradientUnits="userSpaceOnUse">
<stop stop-color="#0C0B31"/>
<stop offset="1" stop-color="#CCCCCC" stop-opacity="0"/>
</linearGradient>
<linearGradient id="paint53_linear_346_3" x1="19.7154" y1="33.7268" x2="19.7154" y2="34.4235" gradientUnits="userSpaceOnUse">
<stop stop-color="#0C0B31"/>
<stop offset="1" stop-color="#CCCCCC" stop-opacity="0"/>
</linearGradient>
<linearGradient id="paint54_linear_346_3" x1="21.5035" y1="33.7518" x2="21.5035" y2="34.4235" gradientUnits="userSpaceOnUse">
<stop stop-color="#0C0B31"/>
<stop offset="1" stop-color="#CCCCCC" stop-opacity="0"/>
</linearGradient>
<linearGradient id="paint55_linear_346_3" x1="23.2915" y1="33.7518" x2="23.2915" y2="34.4235" gradientUnits="userSpaceOnUse">
<stop stop-color="#0C0B31"/>
<stop offset="1" stop-color="#CCCCCC" stop-opacity="0"/>
</linearGradient>
<linearGradient id="paint56_linear_346_3" x1="25.0561" y1="33.7518" x2="25.0561" y2="34.4235" gradientUnits="userSpaceOnUse">
<stop stop-color="#0C0B31"/>
<stop offset="1" stop-color="#CCCCCC" stop-opacity="0"/>
</linearGradient>
<linearGradient id="paint57_linear_346_3" x1="26.8326" y1="33.7518" x2="26.8326" y2="34.4481" gradientUnits="userSpaceOnUse">
<stop stop-color="#0C0B31"/>
<stop offset="1" stop-color="#CCCCCC" stop-opacity="0"/>
</linearGradient>
<linearGradient id="paint58_linear_346_3" x1="28.644" y1="33.7518" x2="28.644" y2="34.4481" gradientUnits="userSpaceOnUse">
<stop stop-color="#0C0B31"/>
<stop offset="1" stop-color="#CCCCCC" stop-opacity="0"/>
</linearGradient>
<linearGradient id="paint59_linear_346_3" x1="31.0163" y1="33.7518" x2="31.0163" y2="34.4481" gradientUnits="userSpaceOnUse">
<stop stop-color="#0C0B31"/>
<stop offset="1" stop-color="#CCCCCC" stop-opacity="0"/>
</linearGradient>
<linearGradient id="paint60_linear_346_3" x1="6.64951" y1="32.6574" x2="6.64951" y2="32.9061" gradientUnits="userSpaceOnUse">
<stop stop-color="#0C0B31"/>
<stop offset="1" stop-color="#CCCCCC" stop-opacity="0"/>
</linearGradient>
<linearGradient id="paint61_linear_346_3" x1="8.2277" y1="32.6574" x2="8.2277" y2="32.931" gradientUnits="userSpaceOnUse">
<stop stop-color="#0C0B31"/>
<stop offset="1" stop-color="#CCCCCC" stop-opacity="0"/>
</linearGradient>
<linearGradient id="paint62_linear_346_3" x1="9.81691" y1="32.6574" x2="9.81691" y2="32.931" gradientUnits="userSpaceOnUse">
<stop stop-color="#0C0B31"/>
<stop offset="1" stop-color="#CCCCCC" stop-opacity="0"/>
</linearGradient>
<linearGradient id="paint63_linear_346_3" x1="11.4061" y1="32.6574" x2="11.4061" y2="32.931" gradientUnits="userSpaceOnUse">
<stop stop-color="#0C0B31"/>
<stop offset="1" stop-color="#CCCCCC" stop-opacity="0"/>
</linearGradient>
<linearGradient id="paint64_linear_346_3" x1="12.9941" y1="32.6574" x2="12.9941" y2="32.931" gradientUnits="userSpaceOnUse">
<stop stop-color="#0C0B31"/>
<stop offset="1" stop-color="#CCCCCC" stop-opacity="0"/>
</linearGradient>
<linearGradient id="paint65_linear_346_3" x1="14.5835" y1="32.6574" x2="14.5835" y2="32.931" gradientUnits="userSpaceOnUse">
<stop stop-color="#0C0B31"/>
<stop offset="1" stop-color="#CCCCCC" stop-opacity="0"/>
</linearGradient>
<linearGradient id="paint66_linear_346_3" x1="16.173" y1="32.6574" x2="16.173" y2="32.931" gradientUnits="userSpaceOnUse">
<stop stop-color="#0C0B31"/>
<stop offset="1" stop-color="#CCCCCC" stop-opacity="0"/>
</linearGradient>
<linearGradient id="paint67_linear_346_3" x1="17.752" y1="32.6574" x2="17.752" y2="32.931" gradientUnits="userSpaceOnUse">
<stop stop-color="#0C0B31"/>
<stop offset="1" stop-color="#CCCCCC" stop-opacity="0"/>
</linearGradient>
<linearGradient id="paint68_linear_346_3" x1="19.3309" y1="32.6574" x2="19.3309" y2="32.931" gradientUnits="userSpaceOnUse">
<stop stop-color="#0C0B31"/>
<stop offset="1" stop-color="#CCCCCC" stop-opacity="0"/>
</linearGradient>
<linearGradient id="paint69_linear_346_3" x1="20.9204" y1="32.6574" x2="20.9204" y2="32.931" gradientUnits="userSpaceOnUse">
<stop stop-color="#0C0B31"/>
<stop offset="1" stop-color="#CCCCCC" stop-opacity="0"/>
</linearGradient>
<linearGradient id="paint70_linear_346_3" x1="22.5086" y1="32.6574" x2="22.5086" y2="32.931" gradientUnits="userSpaceOnUse">
<stop stop-color="#0C0B31"/>
<stop offset="1" stop-color="#CCCCCC" stop-opacity="0"/>
</linearGradient>
<linearGradient id="paint71_linear_346_3" x1="24.0979" y1="32.6574" x2="24.0979" y2="32.931" gradientUnits="userSpaceOnUse">
<stop stop-color="#0C0B31"/>
<stop offset="1" stop-color="#CCCCCC" stop-opacity="0"/>
</linearGradient>
<linearGradient id="paint72_linear_346_3" x1="25.6872" y1="32.6574" x2="25.6872" y2="32.931" gradientUnits="userSpaceOnUse">
<stop stop-color="#0C0B31"/>
<stop offset="1" stop-color="#CCCCCC" stop-opacity="0"/>
</linearGradient>
<linearGradient id="paint73_linear_346_3" x1="27.2766" y1="32.6574" x2="27.2766" y2="32.956" gradientUnits="userSpaceOnUse">
<stop stop-color="#0C0B31"/>
<stop offset="1" stop-color="#CCCCCC" stop-opacity="0"/>
</linearGradient>
<linearGradient id="paint74_linear_346_3" x1="28.8623" y1="32.6574" x2="28.8623" y2="32.956" gradientUnits="userSpaceOnUse">
<stop stop-color="#0C0B31"/>
<stop offset="1" stop-color="#CCCCCC" stop-opacity="0"/>
</linearGradient>
<linearGradient id="paint75_linear_346_3" x1="30.444" y1="32.6824" x2="30.444" y2="32.9561" gradientUnits="userSpaceOnUse">
<stop stop-color="#0C0B31"/>
<stop offset="1" stop-color="#CCCCCC" stop-opacity="0"/>
</linearGradient>
<linearGradient id="paint76_linear_346_3" x1="6.84865" y1="31.7621" x2="6.84865" y2="32.0606" gradientUnits="userSpaceOnUse">
<stop stop-color="#0C0B31"/>
<stop offset="1" stop-color="#CCCCCC" stop-opacity="0"/>
</linearGradient>
<linearGradient id="paint77_linear_346_3" x1="8.09893" y1="31.8117" x2="8.09893" y2="32.0107" gradientUnits="userSpaceOnUse">
<stop stop-color="#0C0B31"/>
<stop offset="1" stop-color="#CCCCCC" stop-opacity="0"/>
</linearGradient>
<linearGradient id="paint78_linear_346_3" x1="17.9506" y1="36.3386" x2="17.9506" y2="37.0099" gradientUnits="userSpaceOnUse">
<stop stop-color="#B8B8B8"/>
<stop offset="1" stop-color="#B8B8B8" stop-opacity="0"/>
</linearGradient>
<linearGradient id="paint79_linear_346_3" x1="19.2947" y1="36.3386" x2="19.2947" y2="37.0349" gradientUnits="userSpaceOnUse">
<stop stop-color="#B8B8B8"/>
<stop offset="1" stop-color="#B8B8B8" stop-opacity="0"/>
</linearGradient>
<linearGradient id="paint80_linear_346_3" x1="21.293" y1="36.3636" x2="21.293" y2="37.0349" gradientUnits="userSpaceOnUse">
<stop stop-color="#B8B8B8"/>
<stop offset="1" stop-color="#B8B8B8" stop-opacity="0"/>
</linearGradient>
<linearGradient id="paint81_linear_346_3" x1="23.2682" y1="36.3636" x2="23.2682" y2="37.0599" gradientUnits="userSpaceOnUse">
<stop stop-color="#B8B8B8"/>
<stop offset="1" stop-color="#B8B8B8" stop-opacity="0"/>
</linearGradient>
<linearGradient id="paint82_linear_346_3" x1="25.2431" y1="36.3636" x2="25.2431" y2="37.0598" gradientUnits="userSpaceOnUse">
<stop stop-color="#B8B8B8"/>
<stop offset="1" stop-color="#B8B8B8" stop-opacity="0"/>
</linearGradient>
<linearGradient id="paint83_linear_346_3" x1="27.2181" y1="36.3882" x2="27.2181" y2="37.0849" gradientUnits="userSpaceOnUse">
<stop stop-color="#B8B8B8"/>
<stop offset="1" stop-color="#B8B8B8" stop-opacity="0"/>
</linearGradient>
<linearGradient id="paint84_linear_346_3" x1="30.993" y1="36.3882" x2="30.993" y2="37.0849" gradientUnits="userSpaceOnUse">
<stop stop-color="#B8B8B8"/>
<stop offset="1" stop-color="#B8B8B8" stop-opacity="0"/>
</linearGradient>
<linearGradient id="paint85_linear_346_3" x1="18.4648" y1="35.4679" x2="18.4648" y2="36.1646" gradientUnits="userSpaceOnUse">
<stop stop-color="#B8B8B8"/>
<stop offset="1" stop-color="#B8B8B8" stop-opacity="0"/>
</linearGradient>
<linearGradient id="paint86_linear_346_3" x1="20.253" y1="35.4679" x2="20.253" y2="36.1645" gradientUnits="userSpaceOnUse">
<stop stop-color="#B8B8B8"/>
<stop offset="1" stop-color="#B8B8B8" stop-opacity="0"/>
</linearGradient>
<linearGradient id="paint87_linear_346_3" x1="22.1813" y1="35.4928" x2="22.1813" y2="36.1645" gradientUnits="userSpaceOnUse">
<stop stop-color="#B8B8B8"/>
<stop offset="1" stop-color="#B8B8B8" stop-opacity="0"/>
</linearGradient>
<linearGradient id="paint88_linear_346_3" x1="24.0862" y1="35.4928" x2="24.0862" y2="36.1892" gradientUnits="userSpaceOnUse">
<stop stop-color="#B8B8B8"/>
<stop offset="1" stop-color="#B8B8B8" stop-opacity="0"/>
</linearGradient>
<linearGradient id="paint89_linear_346_3" x1="25.991" y1="35.4928" x2="25.991" y2="36.1892" gradientUnits="userSpaceOnUse">
<stop stop-color="#B8B8B8"/>
<stop offset="1" stop-color="#B8B8B8" stop-opacity="0"/>
</linearGradient>
<linearGradient id="paint90_linear_346_3" x1="27.9077" y1="35.5179" x2="27.9077" y2="36.1892" gradientUnits="userSpaceOnUse">
<stop stop-color="#B8B8B8"/>
<stop offset="1" stop-color="#B8B8B8" stop-opacity="0"/>
</linearGradient>
<linearGradient id="paint91_linear_346_3" x1="31.098" y1="35.5179" x2="31.098" y2="36.2142" gradientUnits="userSpaceOnUse">
<stop stop-color="#B8B8B8"/>
<stop offset="1" stop-color="#B8B8B8" stop-opacity="0"/>
</linearGradient>
<linearGradient id="paint92_linear_346_3" x1="18.5702" y1="34.5976" x2="18.5702" y2="35.2938" gradientUnits="userSpaceOnUse">
<stop stop-color="#B8B8B8"/>
<stop offset="1" stop-color="#B8B8B8" stop-opacity="0"/>
</linearGradient>
<linearGradient id="paint93_linear_346_3" x1="20.2764" y1="34.6225" x2="20.2764" y2="35.2938" gradientUnits="userSpaceOnUse">
<stop stop-color="#B8B8B8"/>
<stop offset="1" stop-color="#B8B8B8" stop-opacity="0"/>
</linearGradient>
<linearGradient id="paint94_linear_346_3" x1="22.1462" y1="34.6225" x2="22.1462" y2="35.2938" gradientUnits="userSpaceOnUse">
<stop stop-color="#B8B8B8"/>
<stop offset="1" stop-color="#B8B8B8" stop-opacity="0"/>
</linearGradient>
<linearGradient id="paint95_linear_346_3" x1="23.9809" y1="34.6225" x2="23.9809" y2="35.3189" gradientUnits="userSpaceOnUse">
<stop stop-color="#B8B8B8"/>
<stop offset="1" stop-color="#B8B8B8" stop-opacity="0"/>
</linearGradient>
<linearGradient id="paint96_linear_346_3" x1="25.8275" y1="34.6225" x2="25.8275" y2="35.3188" gradientUnits="userSpaceOnUse">
<stop stop-color="#B8B8B8"/>
<stop offset="1" stop-color="#B8B8B8" stop-opacity="0"/>
</linearGradient>
<linearGradient id="paint97_linear_346_3" x1="27.6739" y1="34.6471" x2="27.6739" y2="35.3188" gradientUnits="userSpaceOnUse">
<stop stop-color="#B8B8B8"/>
<stop offset="1" stop-color="#B8B8B8" stop-opacity="0"/>
</linearGradient>
<linearGradient id="paint98_linear_346_3" x1="29.497" y1="34.6471" x2="29.497" y2="35.3188" gradientUnits="userSpaceOnUse">
<stop stop-color="#B8B8B8"/>
<stop offset="1" stop-color="#B8B8B8" stop-opacity="0"/>
</linearGradient>
<linearGradient id="paint99_linear_346_3" x1="31.6591" y1="34.6471" x2="31.6591" y2="35.3188" gradientUnits="userSpaceOnUse">
<stop stop-color="#B8B8B8"/>
<stop offset="1" stop-color="#B8B8B8" stop-opacity="0"/>
</linearGradient>
<linearGradient id="paint100_linear_346_3" x1="18.3363" y1="33.7268" x2="18.3363" y2="34.4235" gradientUnits="userSpaceOnUse">
<stop stop-color="#B8B8B8"/>
<stop offset="1" stop-color="#B8B8B8" stop-opacity="0"/>
</linearGradient>
<linearGradient id="paint101_linear_346_3" x1="19.7154" y1="33.7268" x2="19.7154" y2="34.4235" gradientUnits="userSpaceOnUse">
<stop stop-color="#B8B8B8"/>
<stop offset="1" stop-color="#B8B8B8" stop-opacity="0"/>
</linearGradient>
<linearGradient id="paint102_linear_346_3" x1="21.5035" y1="33.7518" x2="21.5035" y2="34.4235" gradientUnits="userSpaceOnUse">
<stop stop-color="#B8B8B8"/>
<stop offset="1" stop-color="#B8B8B8" stop-opacity="0"/>
</linearGradient>
<linearGradient id="paint103_linear_346_3" x1="23.2915" y1="33.7518" x2="23.2915" y2="34.4235" gradientUnits="userSpaceOnUse">
<stop stop-color="#B8B8B8"/>
<stop offset="1" stop-color="#B8B8B8" stop-opacity="0"/>
</linearGradient>
<linearGradient id="paint104_linear_346_3" x1="25.0561" y1="33.7518" x2="25.0561" y2="34.4235" gradientUnits="userSpaceOnUse">
<stop stop-color="#B8B8B8"/>
<stop offset="1" stop-color="#B8B8B8" stop-opacity="0"/>
</linearGradient>
<linearGradient id="paint105_linear_346_3" x1="26.8326" y1="33.7518" x2="26.8326" y2="34.4481" gradientUnits="userSpaceOnUse">
<stop stop-color="#B8B8B8"/>
<stop offset="1" stop-color="#B8B8B8" stop-opacity="0"/>
</linearGradient>
<linearGradient id="paint106_linear_346_3" x1="28.644" y1="33.7518" x2="28.644" y2="34.4481" gradientUnits="userSpaceOnUse">
<stop stop-color="#B8B8B8"/>
<stop offset="1" stop-color="#B8B8B8" stop-opacity="0"/>
</linearGradient>
<linearGradient id="paint107_linear_346_3" x1="31.0163" y1="33.7518" x2="31.0163" y2="34.4481" gradientUnits="userSpaceOnUse">
<stop stop-color="#B8B8B8"/>
<stop offset="1" stop-color="#B8B8B8" stop-opacity="0"/>
</linearGradient>
<linearGradient id="paint108_linear_346_3" x1="18.2312" y1="32.6574" x2="18.2312" y2="32.931" gradientUnits="userSpaceOnUse">
<stop stop-color="#B8B8B8"/>
<stop offset="1" stop-color="#B8B8B8" stop-opacity="0"/>
</linearGradient>
<linearGradient id="paint109_linear_346_3" x1="19.3309" y1="32.6574" x2="19.3309" y2="32.931" gradientUnits="userSpaceOnUse">
<stop stop-color="#B8B8B8"/>
<stop offset="1" stop-color="#B8B8B8" stop-opacity="0"/>
</linearGradient>
<linearGradient id="paint110_linear_346_3" x1="20.9204" y1="32.6574" x2="20.9204" y2="32.931" gradientUnits="userSpaceOnUse">
<stop stop-color="#B8B8B8"/>
<stop offset="1" stop-color="#B8B8B8" stop-opacity="0"/>
</linearGradient>
<linearGradient id="paint111_linear_346_3" x1="22.5086" y1="32.6574" x2="22.5086" y2="32.931" gradientUnits="userSpaceOnUse">
<stop stop-color="#B8B8B8"/>
<stop offset="1" stop-color="#B8B8B8" stop-opacity="0"/>
</linearGradient>
<linearGradient id="paint112_linear_346_3" x1="24.0979" y1="32.6574" x2="24.0979" y2="32.931" gradientUnits="userSpaceOnUse">
<stop stop-color="#B8B8B8"/>
<stop offset="1" stop-color="#B8B8B8" stop-opacity="0"/>
</linearGradient>
<linearGradient id="paint113_linear_346_3" x1="25.6872" y1="32.6574" x2="25.6872" y2="32.931" gradientUnits="userSpaceOnUse">
<stop stop-color="#B8B8B8"/>
<stop offset="1" stop-color="#B8B8B8" stop-opacity="0"/>
</linearGradient>
<linearGradient id="paint114_linear_346_3" x1="27.2766" y1="32.6574" x2="27.2766" y2="32.956" gradientUnits="userSpaceOnUse">
<stop stop-color="#B8B8B8"/>
<stop offset="1" stop-color="#B8B8B8" stop-opacity="0"/>
</linearGradient>
<linearGradient id="paint115_linear_346_3" x1="28.8623" y1="32.6574" x2="28.8623" y2="32.956" gradientUnits="userSpaceOnUse">
<stop stop-color="#B8B8B8"/>
<stop offset="1" stop-color="#B8B8B8" stop-opacity="0"/>
</linearGradient>
<linearGradient id="paint116_linear_346_3" x1="30.444" y1="32.6824" x2="30.444" y2="32.9561" gradientUnits="userSpaceOnUse">
<stop stop-color="#B8B8B8"/>
<stop offset="1" stop-color="#B8B8B8" stop-opacity="0"/>
</linearGradient>
<linearGradient id="paint117_linear_346_3" x1="27.3235" y1="37.8557" x2="27.3235" y2="38.6018" gradientUnits="userSpaceOnUse">
<stop stop-color="#B8B8B8"/>
<stop offset="1" stop-color="#B8B8B8" stop-opacity="0"/>
</linearGradient>
<clipPath id="clip0_346_3">
<rect width="37" height="39" fill="white"/>
</clipPath>
</defs>
</svg>
